<svg width="24" height="24" viewBox="0 0 24 24" fill="none" xmlns="http://www.w3.org/2000/svg">
    <g clip-path="url(#clip0_489_8782)">
        <rect x="7" y="12" width="10" height="10" rx="2" stroke="#F01543" stroke-width="1.5"/>
        <path d="M12 2C7.58172 2 4 4.68629 4 8C4 6.89543 5.79086 6 8 6C10.2091 6 12 6.89543 12 8C12 6.89543 13.7909 6 16 6C18.2091 6 20 6.89543 20 8C20 4.68629 16.4183 2 12 2Z" stroke="#F01543" stroke-width="1.5" stroke-linecap="round" stroke-linejoin="round"/>
        <path d="M13 14L11 14" stroke="#F01543" stroke-width="1.5" stroke-linecap="round" stroke-linejoin="round"/>
        <path d="M20 8L15 12M12 8V12M4 8L9 12" stroke="#F01543" stroke-width="1.5" stroke-linecap="round" stroke-linejoin="round"/>
    </g>
    <defs>
        <clipPath id="clip0_489_8782">
            <rect width="24" height="24" fill="white"/>
        </clipPath>
    </defs>
</svg>
