<svg width="24" height="24" viewBox="0 0 24 24" fill="none" xmlns="http://www.w3.org/2000/svg">
<path d="M21.2695 13.2305C20.8538 13.2305 17.393 13.2305 17.5781 13.2305C16.2209 13.2305 15.1172 14.3341 15.1172 15.6914C15.1172 17.0486 16.2208 18.1523 17.5781 18.1523C17.9939 18.1523 21.4546 18.1523 21.2695 18.1523C21.9478 18.1523 22.5 17.6002 22.5 16.9219C22.5 16.7852 22.5 14.3278 22.5 14.4609C22.5 13.7826 21.9479 13.2305 21.2695 13.2305ZM17.5781 16.3066C17.2384 16.3066 16.9629 16.0312 16.9629 15.6914C16.9629 15.3517 17.2383 15.0762 17.5781 15.0762C17.9179 15.0762 18.1934 15.3516 18.1934 15.6914C18.1934 16.0311 17.9179 16.3066 17.5781 16.3066Z" fill="#F01543"/>
<path d="M10.7695 7.65234C12.4656 7.65234 13.8457 6.27233 13.8457 4.57617C13.8457 2.88013 12.4657 1.5 10.7695 1.5C9.07349 1.5 7.69336 2.88001 7.69336 4.57617C7.69336 6.27221 9.07337 7.65234 10.7695 7.65234ZM10.7695 3.96094C11.1093 3.96094 11.3848 4.23632 11.3848 4.57617C11.3848 4.9159 11.1093 5.19141 10.7695 5.19141C10.4298 5.19141 10.1543 4.91595 10.1543 4.57617C10.1543 4.23644 10.4297 3.96094 10.7695 3.96094Z" fill="#F01543"/>
<path d="M19.4239 7.03461C19.4239 6.69623 19.1496 6.42188 18.8111 6.42188H14.6442C14.4287 6.87206 14.1412 7.2937 13.774 7.65234H19.4239C19.4239 7.52844 19.4239 6.9107 19.4239 7.03461Z" fill="#F01543"/>
<path d="M13.8867 15.6916C13.8867 13.6561 15.5425 12.0002 17.5781 12.0002C17.744 12.0002 20.8272 12.0002 20.6543 12.0002V9.49827C20.6543 9.1537 20.3836 8.88304 20.0391 8.88304C19.8297 8.88304 2.40878 8.88304 2.11523 8.88304C1.90478 8.88304 1.70061 8.84125 1.5 8.76971V20.6545C1.5 21.6757 2.32437 22.5002 3.3457 22.5002H20.0391C20.3836 22.5002 20.6543 22.2296 20.6543 21.885V19.383C20.4884 19.383 17.4052 19.383 17.5781 19.383C15.5426 19.383 13.8867 17.7272 13.8867 15.6916Z" fill="#F01543"/>
<path d="M2.11523 6.42188C1.77066 6.42188 1.5 6.69254 1.5 7.03711C1.5 7.3816 1.77066 7.65234 2.11523 7.65234H7.7651C7.39796 7.2937 7.11036 6.87206 6.89491 6.42188H2.11523Z" fill="#F01543"/>
</svg>
