<svg width="16" height="20" viewBox="0 0 16 20" fill="none" xmlns="http://www.w3.org/2000/svg">
<rect x="1.11597" y="9.32977" width="13.7681" height="8.94928" rx="3.30435" stroke="black" stroke-width="1.5"/>
<path d="M1.11597 12.4275C1.11597 12.4275 3.18718 11.7391 4.558 11.7391C5.92881 11.7391 6.62921 12.4275 8.00002 12.4275C9.37084 12.4275 10.0712 11.7391 11.4421 11.7391C12.8129 11.7391 14.8841 12.4275 14.8841 12.4275" stroke="black" stroke-width="1.5"/>
<path d="M5.93481 7.95285C5.93481 7.56901 5.93481 7.37708 5.96656 7.21749C6.09693 6.56208 6.60926 6.04975 7.26467 5.91938C7.42426 5.88763 7.61619 5.88763 8.00003 5.88763V5.88763C8.38388 5.88763 8.5758 5.88763 8.7354 5.91938C9.3908 6.04975 9.90314 6.56208 10.0335 7.21749C10.0652 7.37708 10.0652 7.56901 10.0652 7.95285V9.32966H5.93481V7.95285Z" stroke="black" stroke-width="1.5"/>
<path d="M8.83341 3.80428C8.83341 4.95487 8.00008 5.88761 8.00008 5.88761C8.00008 5.88761 7.16675 4.95487 7.16675 3.80428C7.16675 2.65369 8.00008 1.72095 8.00008 1.72095C8.00008 1.72095 8.83341 2.65369 8.83341 3.80428Z" stroke="black" stroke-width="1.5" stroke-linejoin="round"/>
</svg>
