<svg width="20" height="20" viewBox="0 0 20 20" fill="none" xmlns="http://www.w3.org/2000/svg">
<path fill-rule="evenodd" clip-rule="evenodd" d="M14.5332 5.197C14.5665 5.25527 14.6248 5.29689 14.6998 5.29689C16.6998 5.29689 18.3332 6.92841 18.3332 8.92619V13.8707C18.3332 15.8685 16.6998 17.5 14.6998 17.5H5.29984C3.2915 17.5 1.6665 15.8685 1.6665 13.8707V8.92619C1.6665 6.92841 3.2915 5.29689 5.29984 5.29689C5.3665 5.29689 5.43317 5.2636 5.45817 5.197L5.50817 5.09711C5.5369 5.03665 5.56638 4.97455 5.59631 4.9115C5.8095 4.46246 6.04536 3.96567 6.1915 3.6737C6.57484 2.92453 7.22484 2.50832 8.03317 2.5H11.9582C12.7665 2.50832 13.4248 2.92453 13.8082 3.6737C13.9394 3.93592 14.1394 4.35833 14.3322 4.76545C14.3719 4.84942 14.4114 4.93274 14.4498 5.01387L14.5332 5.197ZM13.9248 8.39345C13.9248 8.80966 14.2582 9.14262 14.6748 9.14262C15.0915 9.14262 15.4332 8.80966 15.4332 8.39345C15.4332 7.97725 15.0915 7.63596 14.6748 7.63596C14.2582 7.63596 13.9248 7.97725 13.9248 8.39345ZM8.55817 9.68368C8.94984 9.29245 9.45817 9.08435 9.99984 9.08435C10.5415 9.08435 11.0498 9.29245 11.4332 9.67536C11.8165 10.0583 12.0248 10.566 12.0248 11.1071C12.0165 12.2225 11.1165 13.1299 9.99984 13.1299C9.45817 13.1299 8.94984 12.9218 8.5665 12.5388C8.18317 12.1559 7.97484 11.6482 7.97484 11.1071V11.0988C7.9665 10.5744 8.17484 10.0666 8.55817 9.68368ZM12.3082 13.4212C11.7165 14.0122 10.8998 14.3785 9.99984 14.3785C9.12484 14.3785 8.30817 14.0372 7.68317 13.4212C7.0665 12.7969 6.72484 11.9811 6.72484 11.1071C6.7165 10.2414 7.05817 9.42564 7.67484 8.80133C8.29984 8.17703 9.12484 7.83574 9.99984 7.83574C10.8748 7.83574 11.6998 8.17703 12.3165 8.79301C12.9332 9.41731 13.2748 10.2414 13.2748 11.1071C13.2665 12.0144 12.8998 12.8302 12.3082 13.4212Z" fill="#9EA3AE"/>
</svg>
