<svg width="20" height="20" viewBox="0 0 20 20" fill="none" xmlns="http://www.w3.org/2000/svg">
<path d="M15 14.1667H12.5M15 11.6667H12.5M4.99996 17.5H15C16.8409 17.5 18.3333 16.0076 18.3333 14.1667V5.83333C18.3333 3.99238 16.8409 2.5 15 2.5H4.99996C3.15901 2.5 1.66663 3.99238 1.66663 5.83333V14.1667C1.66663 16.0076 3.15901 17.5 4.99996 17.5ZM6.66663 5.83333H8.33329C9.25377 5.83333 9.99996 6.57953 9.99996 7.5C9.99996 8.42047 9.25377 9.16667 8.33329 9.16667H6.66663C5.74615 9.16667 4.99996 8.42047 4.99996 7.5C4.99996 6.57953 5.74615 5.83333 6.66663 5.83333Z" stroke="#4D5461" stroke-width="1.5" stroke-linecap="round" stroke-linejoin="round"/>
</svg>
