<svg width="20" height="20" viewBox="0 0 20 20" fill="none" xmlns="http://www.w3.org/2000/svg">
<path d="M6.66667 8.33342H13.3333M6.66667 11.6667H13.3333M6.66667 15.0001H10M6.66667 3.33341C6.66667 4.25389 7.41286 5.00008 8.33333 5.00008H11.6667C12.5871 5.00008 13.3333 4.25389 13.3333 3.33341M6.66667 3.33341C6.66667 2.41294 7.41286 1.66675 8.33333 1.66675H11.6667C12.5871 1.66675 13.3333 2.41294 13.3333 3.33341M6.66667 3.33341H5.83333C3.99238 3.33341 2.5 4.8258 2.5 6.66675V15.0001C2.5 16.841 3.99238 18.3334 5.83333 18.3334H14.1667C16.0076 18.3334 17.5 16.841 17.5 15.0001V6.66675C17.5 4.8258 16.0076 3.33341 14.1667 3.33341H13.3333" stroke="#4D5461" stroke-width="1.5" stroke-linecap="round"/>
</svg>
