<svg width="20" height="20" viewBox="0 0 20 20" fill="none" xmlns="http://www.w3.org/2000/svg">
    <path d="M16.6431 4.84744L15.9515 5.13755V5.13755L16.6431 4.84744ZM16.0155 5.29013C16.1757 5.6721 16.6153 5.85186 16.9972 5.69164C17.3792 5.53142 17.559 5.09189 17.3987 4.70991L16.0155 5.29013ZM14.0285 1.387C13.6439 1.23316 13.2074 1.42022 13.0536 1.80481C12.8997 2.1894 13.0868 2.62588 13.4714 2.77971L14.0285 1.387ZM13.8893 2.1391L13.6107 2.83545L13.8893 2.1391ZM3.39725 4.84744L4.08887 5.13755V5.13755L3.39725 4.84744ZM2.64163 4.70991C2.48141 5.09189 2.66117 5.53142 3.04315 5.69164C3.42512 5.85186 3.86465 5.6721 4.02487 5.29013L2.64163 4.70991ZM6.569 2.77971C6.95359 2.62588 7.14065 2.1894 6.98681 1.80481C6.83298 1.42022 6.3965 1.23316 6.01191 1.387L6.569 2.77971ZM6.1511 2.1391L5.87256 1.44274L5.87256 1.44274L6.1511 2.1391ZM15.1995 7.47934L14.4543 7.56392L15.1995 7.47934ZM15.5722 10.7627L16.3174 10.6782L15.5722 10.7627ZM4.42765 10.7627L3.68243 10.6782L4.42765 10.7627ZM4.80031 7.47934L5.54552 7.56392L4.80031 7.47934ZM3.70641 12.3935L3.1353 11.9073H3.1353L3.70641 12.3935ZM16.2934 12.3935L15.7223 12.8796L16.2934 12.3935ZM11.8915 3.64474H11.1415C11.1415 3.96532 11.3453 4.25046 11.6486 4.3543L11.8915 3.64474ZM8.1083 3.64474L8.35124 4.3543C8.65454 4.25045 8.8583 3.96532 8.8583 3.64474H8.1083ZM13.2022 16.9299C13.3476 16.542 13.151 16.1098 12.7631 15.9644C12.3753 15.819 11.943 16.0156 11.7976 16.4035L13.2022 16.9299ZM8.20222 16.4035C8.05685 16.0156 7.62458 15.819 7.23671 15.9644C6.84885 16.1098 6.65226 16.542 6.79762 16.9299L8.20222 16.4035ZM15.9515 5.13755L16.0155 5.29013L17.3987 4.70991L17.3347 4.55734L15.9515 5.13755ZM13.4714 2.77971L13.6107 2.83545L14.1678 1.44274L14.0285 1.387L13.4714 2.77971ZM17.3347 4.55734C16.7389 3.13685 15.598 2.01482 14.1678 1.44274L13.6107 2.83545C14.6678 3.2583 15.5111 4.08762 15.9515 5.13755L17.3347 4.55734ZM2.70563 4.55734L2.64163 4.70991L4.02487 5.29013L4.08887 5.13755L2.70563 4.55734ZM6.01191 1.387L5.87256 1.44274L6.42964 2.83545L6.569 2.77971L6.01191 1.387ZM4.08887 5.13755C4.52927 4.08762 5.37253 3.2583 6.42964 2.83545L5.87256 1.44274C4.44234 2.01483 3.30147 3.13685 2.70563 4.55734L4.08887 5.13755ZM14.8142 14.25H5.1856V15.75H14.8142V14.25ZM14.4543 7.56392L14.827 10.8473L16.3174 10.6782L15.9447 7.39476L14.4543 7.56392ZM5.17287 10.8473L5.54552 7.56392L4.05509 7.39476L3.68243 10.6782L5.17287 10.8473ZM4.27751 12.8796C4.77389 12.2965 5.08808 11.5944 5.17287 10.8473L3.68243 10.6782C3.63299 11.1138 3.44835 11.5395 3.1353 11.9073L4.27751 12.8796ZM14.827 10.8473C14.9118 11.5944 15.226 12.2965 15.7223 12.8796L16.8645 11.9073C16.5515 11.5395 16.3669 11.1138 16.3174 10.6782L14.827 10.8473ZM5.1856 14.25C4.68292 14.25 4.33924 14.0027 4.1841 13.7293C4.03636 13.469 4.03718 13.1619 4.27751 12.8796L3.1353 11.9073C2.46145 12.6989 2.44004 13.6952 2.87952 14.4696C3.31161 15.231 4.16462 15.75 5.1856 15.75V14.25ZM14.8142 15.75C15.8352 15.75 16.6882 15.231 17.1203 14.4696C17.5598 13.6952 17.5384 12.6989 16.8645 11.9073L15.7223 12.8796C15.9627 13.1619 15.9635 13.469 15.8157 13.7293C15.6606 14.0027 15.3169 14.25 14.8142 14.25V15.75ZM12.6415 3.64474V3.55831H11.1415V3.64474H12.6415ZM15.9447 7.39476C15.7057 5.28851 14.1451 3.62358 12.1345 2.93518L11.6486 4.3543C13.2087 4.88845 14.2915 6.12926 14.4543 7.56392L15.9447 7.39476ZM8.8583 3.64474V3.55831H7.3583V3.64474H8.8583ZM5.54552 7.56392C5.70835 6.12926 6.79118 4.88845 8.35124 4.3543L7.86535 2.93518C5.85475 3.62358 4.29414 5.28851 4.05509 7.39476L5.54552 7.56392ZM9.99992 2.41669C10.6304 2.41669 11.1415 2.92781 11.1415 3.55831H12.6415C12.6415 2.09938 11.4588 0.916687 9.99992 0.916687V2.41669ZM9.99992 0.916687C8.54099 0.916687 7.3583 2.09938 7.3583 3.55831H8.8583C8.8583 2.92781 9.36942 2.41669 9.99992 2.41669V0.916687ZM11.7976 16.4035C11.5477 17.0704 10.8537 17.5834 9.99992 17.5834V19.0834C11.4546 19.0834 12.7243 18.205 13.2022 16.9299L11.7976 16.4035ZM9.99992 17.5834C9.14617 17.5834 8.45215 17.0704 8.20222 16.4035L6.79762 16.9299C7.27549 18.205 8.54528 19.0834 9.99992 19.0834V17.5834Z" fill="#4D5461"/>
</svg>
