<svg width="24" height="25" viewBox="0 0 24 25" fill="none" xmlns="http://www.w3.org/2000/svg">
<path d="M9.98626 21.7481H13.9863C15.85 21.7481 16.7819 21.7481 17.517 21.4436C18.4971 21.0376 19.2758 20.2589 19.6818 19.2788C19.9863 18.5437 19.9863 17.6119 19.9863 15.7481C19.9863 14.65 20.0485 11.893 19.9863 11.2915H4.11081C4.04854 11.893 3.98626 14.65 3.98626 15.7481C3.98626 17.6119 3.98626 18.5437 4.29074 19.2788C4.69672 20.2589 5.47541 21.0376 6.45553 21.4436C7.19061 21.7481 8.12249 21.7481 9.98626 21.7481Z" stroke="#F01543" stroke-width="1.5"/>
<path d="M10.3709 4.78017C11.3143 5.45568 12 7.63833 12 7.63833C12 7.63833 9.68428 7.73228 8.74084 7.05678C7.79741 6.38127 7.69024 4.27749 7.69024 4.27749C7.69024 4.27749 9.42746 4.10467 10.3709 4.78017Z" stroke="#F01543" stroke-width="1.5" stroke-linecap="round" stroke-linejoin="round"/>
<path d="M13.6292 4.78017C12.6857 5.45568 12 7.63833 12 7.63833C12 7.63833 14.3158 7.73228 15.2592 7.05678C16.2027 6.38127 16.3098 4.27749 16.3098 4.27749C16.3098 4.27749 14.5726 4.10467 13.6292 4.78017Z" stroke="#F01543" stroke-width="1.5" stroke-linecap="round" stroke-linejoin="round"/>
<path d="M10.5 8.24831V21.3844" stroke="#F01543" stroke-width="1.5"/>
<path d="M13.5 8.24831V21.3844" stroke="#F01543" stroke-width="1.5"/>
<path d="M19.8483 11.2483H4.15181C3.59952 11.2483 3.15181 10.8006 3.15181 10.2483V9.24829C3.15181 8.69601 3.59952 8.24829 4.15181 8.24829H19.8483C20.4006 8.24829 20.8483 8.69601 20.8483 9.24829V10.2483C20.8483 10.8006 20.4006 11.2483 19.8483 11.2483Z" stroke="#F01543" stroke-width="1.5"/>
</svg>
