<svg width="304" height="291" viewBox="0 0 304 291" fill="none" xmlns="http://www.w3.org/2000/svg">
    <path d="M28.4074 177.215C15.1173 154.435 7.89289 72.0358 18.183 46.0923C32.1164 10.9714 230.313 -17.0662 262.956 12.2844C297.194 43.0627 286.178 184.242 265.303 200.69C244.427 217.137 44.6352 205.029 28.4074 177.215Z" fill="#FEEAEE"/>
    <path d="M37.8932 0.789671L38.8976 3.41553C39.0244 3.74253 39.2829 4.00106 39.6099 4.12779L42.2357 5.13218C42.7054 5.32018 43.0133 5.77512 43.0133 6.281C43.0133 6.78688 42.7054 7.24181 42.2357 7.42981L39.6099 8.43748C39.2815 8.56208 39.0222 8.82137 38.8976 9.14975L37.8932 11.7756C37.7028 12.2425 37.2487 12.5477 36.7444 12.5477C36.2402 12.5477 35.7861 12.2425 35.5956 11.7756L34.5912 9.14975C34.4655 8.82206 34.2066 8.56316 33.879 8.43748L31.2531 7.42981C30.7834 7.24181 30.4755 6.78688 30.4755 6.281C30.4755 5.77512 30.7834 5.32018 31.2531 5.13218L33.879 4.12779C34.2053 4.00003 34.4635 3.74185 34.5912 3.41553L35.5956 0.789671C35.7861 0.322767 36.2402 0.0175781 36.7444 0.0175781C37.2487 0.0175781 37.7028 0.322767 37.8932 0.789671Z" fill="#FCCBD5"/>
    <path d="M286.08 190.833L287.084 193.459C287.209 193.787 287.468 194.046 287.796 194.171L290.422 195.179C290.892 195.367 291.2 195.822 291.2 196.327C291.2 196.833 290.892 197.288 290.422 197.476L287.796 198.481C287.469 198.607 287.211 198.866 287.084 199.193L286.08 201.819C285.889 202.286 285.435 202.591 284.931 202.591C284.427 202.591 283.972 202.286 283.782 201.819L282.778 199.193C282.65 198.867 282.392 198.608 282.065 198.481L279.439 197.476C278.97 197.288 278.662 196.833 278.662 196.327C278.662 195.822 278.97 195.367 279.439 195.179L282.065 194.171C282.393 194.045 282.652 193.786 282.778 193.459L283.782 190.833C283.972 190.366 284.427 190.061 284.931 190.061C285.435 190.061 285.889 190.366 286.08 190.833Z" fill="#FCCBD5"/>
    <path d="M231.156 181.813L232.716 185.876C232.911 186.384 233.311 186.784 233.818 186.979L237.882 188.538C238.626 188.823 239.117 189.536 239.117 190.332C239.117 191.128 238.626 191.842 237.882 192.126L233.818 193.685C233.311 193.88 232.911 194.281 232.716 194.788L231.156 198.852C230.871 199.593 230.159 200.082 229.364 200.082C228.57 200.082 227.857 199.593 227.572 198.852L226.01 194.788C225.815 194.28 225.414 193.879 224.907 193.685L220.843 192.126C220.103 191.839 219.614 191.127 219.614 190.332C219.614 189.538 220.103 188.825 220.843 188.538L224.907 186.996C225.414 186.801 225.815 186.4 226.01 185.893L227.572 181.829C227.854 181.087 228.564 180.594 229.359 180.59C230.153 180.587 230.868 181.073 231.156 181.813Z" fill="white"/>
    <path d="M239.884 13.361L240.888 15.9868C241.013 16.3152 241.272 16.5745 241.601 16.6991L244.227 17.7035C244.704 17.8885 245.019 18.3481 245.019 18.8605C245.019 19.3729 244.704 19.8325 244.227 20.0175L241.601 21.0219C241.272 21.1465 241.013 21.4058 240.888 21.7342L239.884 24.36C239.694 24.8269 239.24 25.1321 238.735 25.1321C238.231 25.1321 237.777 24.8269 237.586 24.36L236.582 21.7342C236.457 21.4058 236.198 21.1465 235.87 21.0219L233.244 20.0175C232.766 19.8325 232.451 19.3729 232.451 18.8605C232.451 18.3481 232.766 17.8885 233.244 17.7035L235.87 16.6991C236.198 16.5745 236.457 16.3152 236.582 15.9868L237.586 13.361C237.777 12.8941 238.231 12.5889 238.735 12.5889C239.24 12.5889 239.694 12.8941 239.884 13.361Z" fill="white"/>
    <path d="M79.9332 45.2849L80.9376 47.9108C81.0622 48.2392 81.3215 48.4984 81.6499 48.623L84.2758 49.6307C84.7454 49.8187 85.0533 50.2737 85.0533 50.7795C85.0533 51.2854 84.7454 51.7403 84.2758 51.9283L81.6499 52.9327C81.3229 53.0595 81.0644 53.318 80.9376 53.645L79.9332 56.2709C79.7482 56.7487 79.2886 57.0636 78.7762 57.0636C78.2639 57.0636 77.8042 56.7487 77.6192 56.2709L76.6148 53.645C76.4881 53.318 76.2295 53.0595 75.9025 52.9327L73.2767 51.9283C72.807 51.7403 72.4991 51.2854 72.4991 50.7795C72.4991 50.2737 72.807 49.8187 73.2767 49.6307L75.9025 48.623C76.2309 48.4984 76.4902 48.2392 76.6148 47.9108L77.6192 45.2849C77.8042 44.8071 78.2639 44.4922 78.7762 44.4922C79.2886 44.4922 79.7482 44.8071 79.9332 45.2849Z" fill="white"/>
    <path d="M31.1185 33.4979C31.1185 33.4979 98.4061 8.38485 154.494 81.6397C194.808 134.295 183.553 169.366 276.449 177.402" stroke="white"/>
    <path d="M13.7878 70.5521C13.7878 70.5521 111.637 51.5146 100.966 108.509C91.9104 156.89 83.3403 190.725 120.588 203.168" stroke="white"/>
    <path d="M174.855 0.819092C174.855 0.819092 209.093 8.78201 224.808 61.657C237.787 105.341 284.642 88.339 284.642 88.339" stroke="white"/>
    <rect x="6.45197" y="72.2131" width="73.7998" height="84.9531" rx="13.9" fill="white"/>
    <path d="M6.45197 133.803V76.7756C6.45197 74.2558 8.49463 72.2131 11.0144 72.2131H24.8461" stroke="#F01543" stroke-width="2" stroke-linecap="round" stroke-linejoin="round"/>
    <path d="M6.45197 139.691H80.2484V152.604C80.2484 155.123 78.2058 157.166 75.686 157.166H11.0242C8.50448 157.166 6.46181 155.123 6.46181 152.604V139.691H6.45197Z" fill="#FE724C"/>
    <ellipse cx="16.4237" cy="148.429" rx="4.3261" ry="4.3261" fill="white"/>
    <circle cx="16.4236" cy="147.391" r="1.54269" fill="#F01543"/>
    <path d="M16.4235 152.755C17.6016 152.756 18.7288 152.275 19.5417 151.422C19.2122 149.965 17.9174 148.93 16.4235 148.93C14.9296 148.93 13.6349 149.965 13.3053 151.422C14.119 152.274 15.2457 152.755 16.4235 152.755Z" fill="#F01543"/>
    <rect x="25.7159" y="146.141" width="38.6264" height="1.54269" rx="0.771346" fill="white"/>
    <rect x="25.7159" y="149.623" width="22.8023" height="1.54269" rx="0.771346" fill="#D2E3FF"/>
    <rect x="21.0452" y="79.4932" width="43.4645" height="29.4982" rx="14.7491" fill="#FE724C"/>
    <path d="M72.6367 100.208C71.3238 90.7613 63.8335 87.5085 63.8335 87.5085L59.7634 104.445L65.0381 122.308L65.5928 139.704H74.6061C74.6061 139.704 73.2735 104.764 72.6367 100.208Z" fill="#F01543"/>
    <path d="M20.3723 139.691L21.2913 87.5251L29.9206 84.2756L56.2218 84.4168L63.9287 87.5251L65.5961 139.691H20.3723Z" fill="#FE335D"/>
    <path d="M21.3045 87.5415L20.6086 126.227C20.6086 126.227 30.321 104.98 27.2159 85.2964L21.3045 87.5415Z" fill="#2A44A1"/>
    <path d="M27.321 129.263L14.1326 114.916L21.0452 107.084L21.3045 87.5415C16.8668 89.6094 4.56461 106.54 2.10943 109.067C-0.444213 111.693 -1.17289 117.053 2.74292 120.801C6.26814 124.185 23.0474 137.088 23.0474 137.088C23.0474 137.088 24.7214 135.244 25.3811 134.134C26.0409 133.025 27.321 129.263 27.321 129.263Z" fill="#F01543"/>
    <path d="M29.9206 84.2756C29.9206 84.2756 37.3321 82.6345 37.5684 77.0742H49.9198C49.9198 77.0742 49.4865 82.6312 56.2251 84.4168C56.2251 84.4168 45.5937 95.0384 29.9206 84.2756Z" fill="#FFA397"/>
    <path d="M50.074 78.6791C49.9511 78.1578 49.8992 77.6223 49.9198 77.0872H39.6231L37.5618 77.1758C37.5294 77.7789 37.4043 78.3734 37.1909 78.9384C38.0148 80.7108 39.7938 83.4056 43.319 83.4155C47.1987 83.4122 49.2042 80.7371 50.074 78.6791Z" fill="#2A44A1"/>
    <path d="M38.8353 58.0005C34.838 59.8398 32.6407 64.1961 33.5376 68.5039C34.4041 72.6725 35.9009 77.4679 38.402 79.8148C42.61 83.7536 49.9361 82.1453 51.5313 74.0642C52.0007 71.7009 52.3519 69.5477 52.6145 67.6866C53.2061 63.4397 50.8621 59.3273 46.9065 57.6723C44.4622 56.6455 41.699 56.6931 39.2915 57.8035L38.8353 58.0005Z" fill="#FFA397"/>
    <path d="M35.9731 76.2634C35.191 73.4749 34.8304 70.5851 34.903 67.6899C34.9431 66.5565 35.6486 65.5537 36.7018 65.133C39.0979 64.1746 43.9229 62.9667 49.9065 65.2085C50.9891 65.6149 51.7208 66.6328 51.7611 67.7884C51.8378 70.6385 51.5488 73.4867 50.9011 76.2634C51.8946 76.6355 53.0131 76.2635 53.586 75.3706C54.899 73.4012 55.6375 68.7107 55.1977 63.6527C54.3935 54.3801 44.5367 51.2159 37.0628 54.7576C29.589 58.2992 29.648 68.1232 33.1765 74.5139C33.6787 75.4264 34.8177 76.4012 35.9731 76.2634Z" fill="#F01543"/>
    <path d="M53.4186 75.5937C52.5422 75.5937 51.9579 74.353 52.4765 72.8497C53.284 70.5193 54.5083 64.552 48.9382 62.4349C43.8243 60.495 37.1776 61.3485 34.8603 64.3452C31.6797 68.4514 36.2848 73.3256 34.2268 75.7086C34.7162 76.1107 35.3413 76.3093 35.973 76.2633C35.191 73.4748 34.8303 70.5851 34.903 67.6899C34.943 66.5565 35.6485 65.5537 36.7017 65.133C39.0978 64.1745 43.9228 62.9666 49.9065 65.2085C50.989 65.6149 51.7207 66.6327 51.761 67.7884C51.8377 70.6385 51.5487 73.4867 50.901 76.2633C51.7973 76.5954 52.8057 76.3273 53.4186 75.5937Z" fill="#2A44A1"/>
    <path opacity="0.8" d="M30.8723 64.6145C30.8723 64.6145 30.6524 52.6241 42.6263 52.3451C55.1812 52.0497 55.4766 64.818 55.4766 64.818L54.4262 63.8628C54.2689 63.72 54.0608 63.6462 53.8486 63.6579C53.6364 63.6696 53.4378 63.7659 53.2971 63.9252C53.1309 64.1192 52.8809 64.2205 52.6265 64.197C52.3721 64.1735 52.1449 64.0282 52.017 63.807C50.9896 62.0214 48.2489 58.5159 42.6263 58.6045C36.9282 58.6931 34.6798 62.2971 33.9248 64.0466C33.8294 64.2644 33.6411 64.4278 33.412 64.4914C33.1829 64.555 32.9373 64.5122 32.7432 64.3749L32.3099 64.0696C31.9827 63.8374 31.5332 63.8883 31.2662 64.1878L30.8723 64.6145Z" fill="#F01543"/>
    <path d="M33.4949 56.5432C33.1057 57.0603 32.7609 57.6093 32.4642 58.1844L35.392 61.7063C35.8213 61.2097 36.3059 60.7637 36.8363 60.377L33.4949 56.5432Z" fill="white"/>
    <path d="M37.7159 59.8125C38.0703 59.6149 38.4376 59.4417 38.8155 59.2939L35.0178 54.9448C34.7487 55.1713 34.4992 55.4109 34.2629 55.6538L37.7159 59.8125Z" fill="white"/>
    <path d="M33.9643 69.9844C33.9643 69.9844 32.2706 64.306 37.7324 62.3333C43.1942 60.3606 48.3704 61.9788 50.11 62.9897" stroke="white" stroke-width="2" stroke-linecap="round" stroke-linejoin="round"/>
    <rect x="54.5543" y="62.4351" width="1.45735" height="6.99463" rx="0.728676" fill="#2A44A1"/>
    <rect x="30.357" y="62.4351" width="1.45735" height="6.99463" rx="0.728676" fill="#2A44A1"/>
    <path d="M29.9206 84.2755L33.6099 82.6606C33.6099 82.6606 37.575 85.3948 41.865 85.943C42.5087 86.0289 43.0318 86.5049 43.1779 87.1377L43.6506 89.1071C43.6506 89.1071 37.3025 89.8391 29.9206 84.2755Z" fill="#F01543"/>
    <path d="M43.6538 89.0972L44.4153 86.9112C44.6075 86.3629 45.0853 85.9645 45.6593 85.874C47.3004 85.6114 50.737 84.8696 53.1889 82.9954L56.2251 84.4166C56.2251 84.4166 52.7327 89.1825 43.6538 89.0972Z" fill="#F01543"/>
    <path d="M32.3166 85.9004C32.3166 85.9004 43.6538 93.0591 54.108 86.0547" stroke="white" stroke-width="2" stroke-linecap="round" stroke-linejoin="round"/>
    <path d="M20.8614 115.484L21.0452 101.475" stroke="white" stroke-width="2" stroke-linecap="round" stroke-linejoin="round"/>
    <path d="M43.6538 89.0974V139.071" stroke="white" stroke-width="2" stroke-linecap="round" stroke-linejoin="round"/>
    <path d="M63.9287 87.5414L65.2154 127.835C65.2154 127.835 54.3673 104.281 57.8269 85.0632L63.9287 87.5414Z" fill="#2A44A1"/>
    <path d="M27.3013 126.227C27.3013 126.227 27.8265 132.388 22.3778 137.41" stroke="white" stroke-width="2" stroke-linecap="round" stroke-linejoin="round"/>
    <path d="M58.3455 127.067C58.3455 127.067 57.41 133.783 62.3335 137.41" stroke="white" stroke-width="2" stroke-linecap="round" stroke-linejoin="round"/>
    <path d="M8.71017 115.484C8.71017 115.484 10.8568 114.04 14.1326 114.916" stroke="white" stroke-width="2" stroke-linecap="round" stroke-linejoin="round"/>
    <rect x="229.2" y="72.2131" width="73.7998" height="84.9531" rx="13.9" fill="white"/>
    <path d="M233.763 72.2131H298.425C300.945 72.2131 302.988 74.2553 302.99 76.7756V133.56" stroke="#F01543" stroke-width="2" stroke-linecap="round" stroke-linejoin="round"/>
    <path d="M229.2 139.691H303V152.604C303 155.123 300.957 157.166 298.438 157.166H233.776C231.256 157.166 229.213 155.123 229.213 152.604V139.691H229.2Z" fill="#FE724C"/>
    <ellipse cx="239.172" cy="148.429" rx="4.3261" ry="4.3261" fill="white"/>
    <circle cx="239.172" cy="147.391" r="1.54269" fill="#F01543"/>
    <path d="M239.172 152.755C240.351 152.756 241.479 152.274 242.294 151.422C241.958 149.97 240.665 148.942 239.175 148.942C237.685 148.942 236.392 149.97 236.057 151.422C236.87 152.273 237.995 152.754 239.172 152.755Z" fill="#F01543"/>
    <rect x="248.464" y="146.141" width="38.6264" height="1.54269" rx="0.771346" fill="white"/>
    <rect x="248.464" y="149.623" width="22.8023" height="1.54269" rx="0.771346" fill="#D2E3FF"/>
    <rect x="243.797" y="79.4932" width="43.4645" height="29.4982" rx="14.7491" fill="#FE724C"/>
    <path d="M295.379 100.208C294.066 90.7613 286.575 87.5085 286.575 87.5085L282.505 104.445L287.783 122.308L288.338 139.704H297.348C297.348 139.704 296.035 104.764 295.379 100.208Z" fill="#F01543"/>
    <path d="M243.121 139.691L244.043 87.5251L252.669 84.2756L278.974 84.4168L286.68 87.5251L288.345 139.691H243.121Z" fill="#FE335D"/>
    <path d="M244.04 87.5414L243.357 126.243C243.357 126.243 253.069 104.997 249.964 85.3127L244.04 87.5414Z" fill="#2A44A1"/>
    <path d="M250.083 129.263L236.881 114.916L243.797 107.085L244.04 87.5251C239.602 89.593 227.3 106.523 224.845 109.051C222.291 111.676 221.562 117.037 225.478 120.785C229.003 124.169 245.783 137.072 245.783 137.072C245.783 137.072 247.457 135.227 248.116 134.118C248.776 133.008 250.083 129.263 250.083 129.263Z" fill="#F01543"/>
    <path d="M252.669 84.2756C252.669 84.2756 260.08 82.6345 260.317 77.0742H272.668C272.668 77.0742 272.235 82.6181 278.967 84.4168C278.967 84.4168 268.349 95.0384 252.669 84.2756Z" fill="#FFA397"/>
    <path d="M272.822 78.6791C272.7 78.1578 272.648 77.6223 272.668 77.0872H262.372L260.31 77.1758C260.278 77.7789 260.153 78.3734 259.939 78.9384C260.763 80.7108 262.542 83.4056 266.067 83.4155C269.947 83.4122 271.943 80.7371 272.822 78.6791Z" fill="#2A44A1"/>
    <path d="M261.571 58.0005C257.573 59.8398 255.376 64.1961 256.273 68.5039C257.143 72.6725 258.636 77.4679 261.137 79.8148C265.345 83.7536 272.671 82.1453 274.267 74.0642C274.736 71.7009 275.087 69.5477 275.35 67.6866C275.944 63.4439 273.607 59.3329 269.658 57.6723C267.214 56.6455 264.451 56.6931 262.043 57.8035L261.571 58.0005Z" fill="#FFA397"/>
    <path d="M258.725 76.2634C257.941 73.4752 257.579 70.5853 257.651 67.6899C257.692 66.5565 258.397 65.5537 259.45 65.133C261.846 64.1746 266.671 62.9667 272.655 65.2085C273.738 65.6142 274.47 66.6325 274.509 67.7884C274.586 70.6385 274.297 73.4867 273.65 76.2634C274.643 76.6355 275.762 76.2635 276.334 75.3706C277.647 73.4012 278.386 68.7107 277.946 63.6527C277.142 54.3801 267.285 51.2159 259.811 54.7576C252.337 58.2992 252.396 68.1232 255.925 74.5139C256.427 75.4264 257.566 76.4012 258.725 76.2634Z" fill="#F01543"/>
    <path d="M276.167 75.5937C275.291 75.5937 274.706 74.353 275.228 72.8497C276.032 70.5193 277.257 64.552 271.687 62.4349C266.573 60.495 259.926 61.3485 257.609 64.3452C254.428 68.4514 259.033 73.3256 256.975 75.7086C257.466 76.1106 258.092 76.3091 258.725 76.2633C257.941 73.4752 257.579 70.5853 257.651 67.6899C257.692 66.5565 258.397 65.5537 259.45 65.133C261.846 64.1745 266.671 62.9666 272.655 65.2085C273.738 65.6141 274.47 66.6324 274.509 67.7884C274.586 70.6385 274.297 73.4867 273.65 76.2633C274.546 76.5954 275.554 76.3273 276.167 75.5937Z" fill="#2A44A1"/>
    <path opacity="0.8" d="M253.621 64.6145C253.621 64.6145 253.401 52.6241 265.375 52.3451C277.93 52.0497 278.225 64.818 278.225 64.818L277.175 63.8628C277.017 63.72 276.809 63.6462 276.597 63.6579C276.385 63.6696 276.186 63.7659 276.046 63.9252C275.879 64.1192 275.629 64.2205 275.375 64.197C275.121 64.1735 274.893 64.0282 274.766 63.807C273.738 62.0214 270.997 58.5159 265.375 58.6045C259.677 58.6931 257.428 62.2971 256.673 64.0466C256.578 64.2644 256.39 64.4278 256.161 64.4914C255.931 64.555 255.686 64.5122 255.492 64.3749L255.058 64.0696C254.731 63.8374 254.282 63.8883 254.015 64.1878L253.621 64.6145Z" fill="#F01543"/>
    <path d="M256.247 56.5432C255.855 57.0594 255.509 57.6085 255.213 58.1844L258.141 61.7063C258.57 61.2097 259.054 60.7637 259.585 60.377L256.247 56.5432Z" fill="white"/>
    <path d="M260.455 59.8125C260.809 59.6149 261.176 59.4417 261.554 59.2939L257.757 54.9448C257.487 55.1713 257.238 55.4109 257.002 55.6538L260.455 59.8125Z" fill="white"/>
    <path d="M256.713 69.9844C256.713 69.9844 255.019 64.306 260.481 62.3333C265.943 60.3606 271.119 61.9788 272.858 62.9897" stroke="white" stroke-width="2" stroke-linecap="round" stroke-linejoin="round"/>
    <rect x="277.303" y="62.4351" width="1.45735" height="6.99463" rx="0.728676" fill="#2A44A1"/>
    <rect x="253.105" y="62.4351" width="1.45735" height="6.99463" rx="0.728676" fill="#2A44A1"/>
    <path d="M252.669 84.2755L256.358 82.6606C256.358 82.6606 260.323 85.3948 264.613 85.943C265.257 86.0289 265.78 86.5049 265.926 87.1377L266.399 89.1071C266.399 89.1071 260.051 89.8391 252.669 84.2755Z" fill="#F01543"/>
    <path d="M266.402 89.0972L267.167 86.9112C267.357 86.3625 267.834 85.9635 268.408 85.874C270.049 85.6114 273.485 84.8696 275.937 82.9954L278.974 84.4166C278.974 84.4166 275.481 89.1825 266.402 89.0972Z" fill="#F01543"/>
    <path d="M255.068 85.9004C255.068 85.9004 266.402 93.0591 276.856 86.0547" stroke="white" stroke-width="2" stroke-linecap="round" stroke-linejoin="round"/>
    <path d="M243.61 115.484L243.797 101.475" stroke="white" stroke-width="2" stroke-linecap="round" stroke-linejoin="round"/>
    <path d="M266.402 89.0974V139.071" stroke="white" stroke-width="2" stroke-linecap="round" stroke-linejoin="round"/>
    <path d="M286.677 87.5416L287.964 127.835C287.964 127.835 277.132 104.291 280.575 85.0798L286.677 87.5416Z" fill="#2A44A1"/>
    <path d="M250.05 126.227C250.05 126.227 250.575 132.388 245.126 137.41" stroke="white" stroke-width="2" stroke-linecap="round" stroke-linejoin="round"/>
    <path d="M281.094 127.067C281.094 127.067 280.162 133.783 285.085 137.41" stroke="white" stroke-width="2" stroke-linecap="round" stroke-linejoin="round"/>
    <path d="M231.459 115.484C231.459 115.484 233.605 114.04 236.881 114.916" stroke="white" stroke-width="2" stroke-linecap="round" stroke-linejoin="round"/>
    <rect x="102.358" y="53.3987" width="104.782" height="120.622" rx="19.74" fill="white"/>
    <path d="M102.358 149.206H207.143V167.541C207.143 171.12 204.242 174.021 200.664 174.021H108.838C105.259 174.021 102.358 171.12 102.358 167.541V149.206Z" fill="#FE724C"/>
    <circle cx="116.518" cy="161.614" r="6.14123" fill="white"/>
    <ellipse cx="116.518" cy="160.143" rx="2.19259" ry="2.19259" fill="#F01543"/>
    <path d="M116.518 167.755C118.192 167.756 119.793 167.071 120.949 165.861C120.476 163.795 118.638 162.331 116.518 162.331C114.399 162.331 112.56 163.795 112.087 165.861C113.243 167.072 114.844 167.756 116.518 167.755Z" fill="#F01543"/>
    <rect x="129.71" y="158.364" width="54.8443" height="2.19259" rx="1.0963" fill="white"/>
    <rect x="129.71" y="163.307" width="32.3736" height="2.19259" rx="1.0963" fill="#D2E3FF"/>
    <rect x="126.592" y="69.4656" width="57.5752" height="39.0728" rx="19.5364" fill="#36C196"/>
    <path d="M194.782 123.007L180.405 101.672L179.48 78.6199C179.48 78.6199 189.327 81.4656 194.923 89.248C198.484 94.1912 209.693 115.425 211.489 118.526C214.006 122.872 211.489 127.983 206.759 129.509C199.935 131.718 194.782 123.007 194.782 123.007Z" fill="#D40430"/>
    <path d="M125.699 149.206L126.917 80.1068L138.346 75.8037L173.187 75.9908L183.395 80.1068L185.598 149.206H125.699Z" fill="#F01543"/>
    <path d="M126.917 80.1069L126.011 131.37C126.011 131.37 138.874 103.228 134.761 77.1528L126.917 80.1069Z" fill="#162A4D"/>
    <path d="M134.902 135.394L117.431 116.39L126.592 106.014L126.92 80.1069C121.038 82.8444 104.748 105.273 101.492 108.62C98.1076 112.1 97.159 119.199 102.332 124.162C107.003 128.646 129.227 145.737 129.227 145.737C129.227 145.737 131.446 143.295 132.316 141.815C133.186 140.334 134.902 135.394 134.902 135.394Z" fill="#D50430"/>
    <path d="M138.346 75.8038C138.346 75.8038 148.16 73.6243 148.475 66.2654H164.834C164.834 66.2654 164.263 73.6243 173.187 75.9909C173.187 75.9909 159.116 90.0622 138.346 75.8038Z" fill="#FFA397"/>
    <path d="M165.041 68.3726C164.879 67.6825 164.809 66.9739 164.834 66.2654H151.196L148.468 66.3803C148.424 67.1787 148.258 67.9657 147.976 68.714C149.066 71.0641 151.422 74.6222 156.093 74.6452C161.23 74.6583 163.876 71.1298 165.041 68.3726Z" fill="#162A4D"/>
    <path d="M150.152 41.0078C144.864 43.4441 141.956 49.2071 143.138 54.9084C144.287 60.4293 146.269 66.7806 149.581 69.889C155.161 75.121 164.857 72.9776 166.977 62.2707C167.595 59.1394 168.061 56.2903 168.409 53.822C169.198 48.1965 166.098 42.7454 160.859 40.5483C157.621 39.1901 153.961 39.2544 150.773 40.7255L150.152 41.0078Z" fill="#FFA397"/>
    <path d="M146.361 65.1887C145.324 61.4952 144.845 57.6672 144.94 53.8319C144.998 52.3328 145.933 51.0083 147.326 50.4511C150.5 49.1841 156.874 47.5823 164.818 50.5495C166.253 51.0872 167.223 52.4376 167.273 53.9697C167.376 57.7447 166.994 61.5174 166.137 65.1953C167.454 65.6861 168.934 65.1944 169.695 64.0136C171.435 61.4108 172.41 55.194 171.829 48.4915C170.762 36.2091 157.715 32.0176 147.805 36.708C137.896 41.3984 137.985 54.4128 142.655 62.878C143.325 64.0826 144.832 65.3725 146.361 65.1887Z" fill="#162A4D"/>
    <path d="M169.472 64.3024C168.31 64.3024 167.539 62.6613 168.225 60.6689C169.295 57.5802 170.913 49.6764 163.534 46.8831C156.763 44.3098 147.956 45.4455 144.887 49.4105C140.676 54.8526 146.775 61.3089 144.05 64.4632C144.7 64.9908 145.527 65.2502 146.361 65.1886C145.324 61.4951 144.845 57.6671 144.94 53.8318C144.998 52.3327 145.933 51.0083 147.326 50.451C150.5 49.184 156.874 47.5823 164.818 50.5495C166.253 51.0871 167.223 52.4376 167.273 53.9697C167.376 57.7447 166.994 61.5173 166.137 65.1952C166.137 65.1952 168.093 65.9731 169.472 64.3024Z" fill="#2A44A1"/>
    <path opacity="0.8" d="M139.606 49.7585C139.606 49.7585 139.314 33.8754 155.174 33.5045C171.806 33.1139 172.196 50.008 172.196 50.008L170.805 48.741C170.596 48.5505 170.32 48.4521 170.038 48.4682C169.756 48.4843 169.493 48.6134 169.308 48.8264C169.086 49.0806 168.756 49.2124 168.42 49.1805C168.084 49.1486 167.784 48.9569 167.614 48.6655C166.252 46.3023 162.622 41.661 155.174 41.7726C147.625 41.8908 144.651 46.6633 143.65 48.9938C143.525 49.2842 143.275 49.5027 142.971 49.5887C142.667 49.6746 142.34 49.6189 142.081 49.4369L141.513 49.0331C141.079 48.7267 140.484 48.793 140.128 49.1874L139.606 49.7585Z" fill="#F01543"/>
    <path d="M143.079 39.0647C142.563 39.7461 142.105 40.4697 141.71 41.2277L145.587 45.8952C146.156 45.2371 146.798 44.6458 147.5 44.1326L143.079 39.0647Z" fill="white"/>
    <path d="M148.659 43.3973C149.127 43.1354 149.613 42.9062 150.113 42.7113L145.084 36.9475C144.74 37.2441 144.411 37.5586 144.1 37.8895L148.659 43.3973Z" fill="white"/>
    <path d="M143.702 56.8745C143.702 56.8745 141.457 49.3514 148.692 46.7354C155.926 44.1194 162.783 46.2693 165.103 47.6118" stroke="white" stroke-width="2" stroke-linecap="round" stroke-linejoin="round"/>
    <rect x="170.975" y="46.8733" width="1.93001" height="9.266" rx="0.965003" fill="#2A44A1"/>
    <rect x="138.923" y="46.8733" width="1.93001" height="9.266" rx="0.965003" fill="#2A44A1"/>
    <path d="M138.346 75.8036L143.233 73.6636C143.233 73.6636 148.485 77.2741 154.166 78.0094C155.019 78.1242 155.713 78.7536 155.909 79.5914L156.536 82.1878C156.536 82.1878 148.124 83.1692 138.346 75.8036Z" fill="#2A44A1"/>
    <path d="M156.536 82.1878L157.547 79.2928C157.8 78.5673 158.43 78.0391 159.188 77.9175C161.348 77.5728 165.914 76.6045 169.163 74.1067L173.184 75.9907C173.184 75.9907 168.563 82.2895 156.536 82.1878Z" fill="#2A44A1"/>
    <path d="M141.52 77.947C141.52 77.947 156.536 87.4297 170.384 78.1472" stroke="white" stroke-width="2" stroke-linecap="round" stroke-linejoin="round"/>
    <path d="M126.345 117.145L126.592 98.583" stroke="white" stroke-width="2" stroke-linecap="round" stroke-linejoin="round"/>
    <path d="M156.536 82.188V148.701" stroke="white" stroke-width="2" stroke-linecap="round" stroke-linejoin="round"/>
    <path d="M183.396 80.1068L185.092 133.494C185.092 133.494 170.722 102.312 175.305 76.8606L183.396 80.1068Z" fill="#162A4D"/>
    <path d="M134.873 131.37C134.873 131.37 135.569 139.53 128.344 146.183" stroke="white" stroke-width="2" stroke-linecap="round" stroke-linejoin="round"/>
    <path d="M175.902 131.4C175.902 131.4 174.76 141.378 181.282 146.17" stroke="white" stroke-width="2" stroke-linecap="round" stroke-linejoin="round"/>
    <path d="M205.863 86.8587C205.863 86.8587 207.13 79.8017 206.936 78.3575C206.743 76.9133 204.498 74.5763 204.695 72.236C204.891 69.8957 203.306 67.4602 204.695 67.4602C206.083 67.4602 207.048 69.2163 207.557 70.7425C208.065 72.2688 208.4 71.3301 208.436 70.1944C208.472 69.0587 209.421 60.8266 209.874 60.6756C210.327 60.5247 211.578 60.4328 211.578 62.4317C211.578 64.4306 211.141 69.7414 211.141 69.7414C211.141 69.7414 212.552 60.2391 213.284 59.7993C214.016 59.3594 215.04 59.4087 214.991 61.3091C214.942 63.2096 214.115 70.0336 214.115 70.0336C214.115 70.0336 215.674 62.0411 216.501 61.7982C217.328 61.5553 218.549 61.8934 218.208 63.7479C217.866 65.6024 217.085 70.3126 217.085 70.3126C217.085 70.3126 218.694 64.319 219.281 64.2206C219.869 64.1221 220.594 64.3683 220.207 66.2195C219.819 68.0707 218.986 74.7535 218.208 77.1857C217.43 79.6179 216.452 80.2547 216.357 82.5458C216.261 84.8368 216.357 88.9791 216.357 88.9791L205.863 86.8587Z" fill="#FFA397"/>
    <path d="M197.723 118.53L205.115 83.4353L217.056 85.1257C217.056 85.1257 213.094 120.059 212.556 123.604C211.804 128.571 206.647 130.993 202 129.224C195.304 126.673 197.723 118.53 197.723 118.53Z" fill="#D40430"/>
    <path d="M208.781 72.7383C208.781 72.7383 212.48 73.3094 213.967 77.99" stroke="#162A4D" stroke-width="2" stroke-linecap="round" stroke-linejoin="round"/>
    <path d="M198.32 115.697L202.252 97.0437" stroke="white" stroke-width="2" stroke-linecap="round" stroke-linejoin="round"/>
    <path d="M112.297 116.235C113.97 115.658 115.796 115.713 117.431 116.39" stroke="white" stroke-width="2" stroke-linecap="round" stroke-linejoin="round"/>
    <rect x="149.985" y="176.929" width="13.2278" height="45.4864" fill="#2A44A1"/>
    <path d="M163.212 192.297V178.485C161.033 178.678 158.827 178.787 156.599 178.787C154.37 178.787 152.164 178.678 149.985 178.485V192.29C152.173 192.456 154.392 192.541 156.641 192.543C158.891 192.545 161.081 192.463 163.212 192.297Z" fill="#162A4D"/>
    <rect x="146.522" y="209.033" width="20.1535" height="81.4213" rx="10.0767" fill="#FE724C"/>
    <path d="M163.304 212.769V274.033C163.304 279.598 158.793 284.11 153.228 284.11V284.11C150.789 284.114 148.432 283.231 146.597 281.625" stroke="white" stroke-width="2" stroke-linecap="round" stroke-linejoin="round"/>
    <path fill-rule="evenodd" clip-rule="evenodd" d="M70.0765 99.6499C70.0765 51.8429 108.834 13.0852 156.641 13.0852C204.458 13.0852 243.206 51.8396 243.206 99.6499C243.206 147.46 204.448 186.215 156.641 186.215C108.834 186.215 70.0765 147.457 70.0765 99.6499ZM83.8327 99.686C83.8327 139.881 116.413 172.458 156.599 172.458C196.784 172.458 229.364 139.865 229.364 99.686C229.364 59.5071 196.784 26.9234 156.599 26.9234C116.413 26.9234 83.8327 59.4907 83.8327 99.686Z" fill="#FFBA40"/>
    <ellipse cx="156.937" cy="99.6925" rx="76.8261" ry="76.826" stroke="white" stroke-width="2" stroke-linecap="round" stroke-linejoin="round"/>
    <path opacity="0.5" d="M98.6558 74.7763C104.737 60.6081 115.758 49.1306 129.667 42.4783" stroke="white" stroke-width="20" stroke-linecap="round" stroke-linejoin="round"/>
</svg>
