<svg width="64" height="64" viewBox="0 0 64 64" fill="none" xmlns="http://www.w3.org/2000/svg">
<g clip-path="url(#clip0_520_8633)">
<path d="M41.7896 18.999C42.3242 18.4778 42.5129 17.713 42.2823 17.0029C42.0516 16.2929 41.4492 15.785 40.7104 15.6778L35.3458 14.8981C35.3208 14.8945 35.2994 14.8789 35.2882 14.8563L32.8891 9.99526C32.5586 9.32576 31.8896 8.90988 31.1429 8.90988C30.3963 8.90988 29.7272 9.32576 29.3968 9.99526L26.9977 14.8563C26.9866 14.8789 26.9651 14.8945 26.9399 14.8981L21.5754 15.6778C20.8366 15.785 20.2344 16.2928 20.0036 17.0029C19.7727 17.7129 19.9616 18.4779 20.4963 18.999L24.3782 22.7829C24.3963 22.8005 24.4043 22.8258 24.4002 22.8508L23.4839 28.1936C23.3577 28.9295 23.6546 29.6591 24.2584 30.0981C24.8624 30.5371 25.6481 30.5939 26.3092 30.2464L31.1074 27.7238C31.1298 27.712 31.1564 27.712 31.1788 27.7238L35.9771 30.2464C36.2646 30.3973 36.5756 30.472 36.8851 30.472C37.2871 30.472 37.6866 30.346 38.0277 30.098C38.6317 29.6591 38.9286 28.9294 38.8023 28.1935L38.6687 27.4145C38.5814 26.9054 38.0976 26.5631 37.5888 26.6509C37.0798 26.7383 36.7378 27.2218 36.8252 27.7308L36.9588 28.5098C36.9621 28.5285 36.9668 28.5566 36.9283 28.5848C36.8899 28.6128 36.8645 28.5996 36.8477 28.5906L32.0494 26.068C31.4821 25.7698 30.8047 25.7698 30.2373 26.068L25.4392 28.5906C25.4223 28.5995 25.3969 28.6128 25.3586 28.5848C25.3201 28.5569 25.3249 28.5285 25.3282 28.5098L26.2446 23.167C26.3529 22.5351 26.1436 21.8908 25.6846 21.4434L21.8027 17.6595C21.7891 17.6463 21.7686 17.6263 21.7832 17.5809C21.7979 17.5356 21.8262 17.5315 21.8451 17.5288L27.2094 16.7493C27.8438 16.6571 28.3918 16.2589 28.6757 15.684L31.0748 10.823C31.0832 10.8059 31.096 10.7803 31.1436 10.7803C31.1912 10.7803 31.2038 10.806 31.2123 10.823L33.6113 15.6839C33.8951 16.2588 34.4431 16.657 35.0774 16.7493L40.4421 17.5289C40.4608 17.5315 40.4892 17.5358 40.504 17.581C40.5187 17.6263 40.4981 17.6464 40.4846 17.6596L36.6026 21.4435C36.1437 21.8909 35.9345 22.5351 36.0427 23.167L36.1913 24.0338C36.2787 24.5429 36.7619 24.8849 37.2712 24.7974C37.7803 24.7101 38.1222 24.2265 38.0348 23.7175L37.8862 22.8509C37.8819 22.8259 37.8902 22.8005 37.9082 22.7829L41.7896 18.999Z" fill="white"/>
<path d="M18.8079 6.36776C18.6063 5.74714 18.0799 5.30326 17.434 5.20951L13.4571 4.63164L11.6788 1.02776C11.39 0.44251 10.8051 0.07901 10.1525 0.07901C9.4999 0.07901 8.91515 0.44251 8.62627 1.02776L6.8479 4.63151L2.87102 5.20938C2.22515 5.30326 1.69877 5.74714 1.49715 6.36764C1.29552 6.98826 1.46052 7.65676 1.9279 8.11238L4.80552 10.9175L4.12615 14.8784C4.01577 15.5216 4.27527 16.1595 4.80327 16.543C5.10152 16.7598 5.45052 16.8699 5.8019 16.8699C6.0724 16.8698 6.3444 16.8046 6.59552 16.6725L10.1525 14.8025L13.7095 16.6725C14.2871 16.9763 14.9739 16.9266 15.5019 16.543C16.0299 16.1594 16.2894 15.5216 16.179 14.8784L15.4996 10.9176L18.3774 8.11263C18.8445 7.65701 19.0095 6.98851 18.8079 6.36776ZM14.1304 9.64001C13.7293 10.0313 13.5463 10.5944 13.641 11.1464L14.2776 14.8578L10.9444 13.1054C10.4486 12.8448 9.85652 12.8449 9.36052 13.1054L6.0274 14.8576L6.66402 11.146C6.75865 10.5939 6.57577 10.0308 6.17452 9.63976L3.47802 7.01138L7.20452 6.46976C7.75877 6.38926 8.2379 6.04114 8.4859 5.53876L10.1524 2.16201L11.8191 5.53901C12.0671 6.04126 12.5461 6.38926 13.1004 6.46976L16.8269 7.01138L14.1304 9.64001Z" fill="white"/>
<path d="M60.7886 6.36751C60.587 5.74688 60.0606 5.30301 59.4147 5.20914L55.4379 4.63126L53.6595 1.02776C53.3707 0.44251 52.7859 0.07901 52.1332 0.07901C51.4806 0.07901 50.896 0.44251 50.607 1.02776L48.8285 4.63138L44.8516 5.20926C44.2057 5.30313 43.6794 5.74701 43.4776 6.36764C43.276 6.98826 43.441 7.65676 43.9084 8.11238L46.7861 10.9174L46.1067 14.8781C45.9964 15.5214 46.2559 16.1591 46.7839 16.5428C47.0821 16.7595 47.4311 16.8696 47.7825 16.8696C48.053 16.8695 48.325 16.8044 48.5761 16.6723L52.1331 14.8023L55.69 16.6723C56.2677 16.976 56.9545 16.9264 57.4825 16.5426C58.0105 16.159 58.2699 15.5213 58.1595 14.8781L57.4802 10.9173L60.358 8.11226C60.8252 7.65676 60.9902 6.98826 60.7886 6.36751ZM56.1111 9.63988C55.7099 10.031 55.5269 10.5943 55.6216 11.1463L56.2582 14.8578L52.9251 13.1055C52.6772 12.9751 52.4052 12.91 52.1331 12.91C51.8611 12.91 51.5891 12.9753 51.3411 13.1055L48.008 14.8578L48.6446 11.1461C48.7392 10.594 48.5564 10.0308 48.155 9.63988L45.4584 7.01138L49.1852 6.46976C49.7396 6.38926 50.2187 6.04114 50.4667 5.53876L52.1332 2.16201L53.7997 5.53876C54.0476 6.04114 54.5267 6.38926 55.0812 6.46976L58.8077 7.01138L56.1111 9.63988Z" fill="white"/>
<path d="M63.5672 24.5351C63.1293 23.8381 62.4115 23.3677 61.5977 23.2447C60.4241 23.0671 59.3007 23.633 58.7307 24.6254C58.4312 24.42 58.0885 24.2776 57.7235 24.2126C56.4602 23.988 55.21 24.7391 54.8152 25.9599L54.3768 27.3151C54.1405 27.1577 53.8791 27.037 53.6002 26.9651C52.2746 26.6235 50.9191 27.3796 50.5133 28.6865L50.2262 29.611C49.914 29.3996 49.5567 29.2551 49.176 29.1926C47.8832 28.9807 46.6507 29.7309 46.2452 30.9764L43.2761 40.0946C42.5686 40.4112 41.0967 41.1595 39.5826 42.4751C39.1927 42.814 39.1513 43.4047 39.4902 43.7946C39.8291 44.1845 40.4197 44.2259 40.8097 43.887C42.5965 42.3342 44.3398 41.675 44.3553 41.6692C44.3592 41.6679 44.3627 41.6659 44.3666 41.6644C44.3853 41.6572 44.4036 41.649 44.422 41.6406C44.4323 41.6359 44.443 41.6315 44.4531 41.6262C44.4726 41.6165 44.4913 41.6055 44.5102 41.5944C44.5187 41.5894 44.5275 41.5847 44.5357 41.5795C44.5563 41.5662 44.5762 41.5519 44.596 41.5369C44.6018 41.5325 44.6081 41.5285 44.6138 41.524C44.639 41.5041 44.6632 41.483 44.6866 41.4601L48.8532 37.3901L51.0896 35.2056C51.259 35.0402 51.4873 34.9496 51.719 34.953C51.7196 34.953 51.7201 34.953 51.7206 34.953C51.9578 34.9557 52.1798 35.0507 52.3456 35.2205C52.521 35.4 52.6058 35.6379 52.5973 35.874C52.5973 35.874 52.5973 35.8744 52.5973 35.8746C52.5935 35.9796 52.5712 36.0841 52.53 36.1831C52.4992 36.2574 52.4577 36.3282 52.4056 36.3937L45.2922 45.3471C44.9985 45.7169 45.0263 46.2476 45.3573 46.5844C45.3791 46.6066 45.4018 46.6271 45.4252 46.6467C45.4332 46.6534 45.4417 46.6592 45.4498 46.6656C45.4656 46.678 45.4813 46.6902 45.4977 46.7012C45.5077 46.7081 45.5181 46.7141 45.5282 46.7205C45.5435 46.73 45.5585 46.7395 45.5741 46.748C45.5852 46.7541 45.5966 46.7596 45.6077 46.7652C45.623 46.7729 45.6382 46.7802 45.6538 46.787C45.6656 46.7921 45.6776 46.7967 45.6893 46.8014C45.705 46.8074 45.7206 46.813 45.7366 46.8182C45.7487 46.8221 45.7608 46.8259 45.7731 46.8292C45.7893 46.8337 45.8055 46.8377 45.822 46.8414C45.8342 46.844 45.8463 46.8467 45.8585 46.8489C45.8753 46.8519 45.8922 46.8542 45.9092 46.8564C45.9212 46.8579 45.9331 46.8595 45.9451 46.8605C45.963 46.862 45.9808 46.8626 45.9987 46.8631C46.0073 46.8634 46.016 46.8644 46.0246 46.8644C46.0265 46.8644 46.0282 46.864 46.0301 46.8639C46.0741 46.8636 46.118 46.8597 46.1617 46.8532C46.169 46.8522 46.1761 46.8512 46.1832 46.85C46.2262 46.8426 46.2687 46.8321 46.3108 46.8187C46.3178 46.8165 46.3247 46.814 46.3316 46.8116C46.374 46.7969 46.4156 46.7795 46.4561 46.7584C46.461 46.7559 46.4657 46.7529 46.4706 46.7502C46.5128 46.7272 46.554 46.7015 46.5933 46.6715L50.4452 43.7195C53.7487 41.1876 56.241 37.8559 57.7252 34.0094C57.9372 33.4599 58.1287 32.8999 58.299 32.3301L60.2702 25.7364C60.4173 25.2944 60.8562 25.0252 61.3182 25.0944C61.5972 25.1365 61.8333 25.2914 61.9835 25.5304C62.1336 25.7694 62.1703 26.0494 62.0873 26.319L59.1322 35.9086C58.9801 36.4025 58.8287 36.9065 58.6756 37.4167C57.3917 41.6939 55.9363 46.5417 52.661 49.2162L45.4327 55.1187C45.2151 55.2964 45.0891 55.5624 45.0891 55.8431V62.0501H36.185V53.3149C36.2313 52.9107 36.664 49.542 38.444 46.6555C38.7151 46.2159 38.5785 45.6396 38.1388 45.3686C37.699 45.0974 37.123 45.2341 36.852 45.6737C34.7301 49.1146 34.3347 53.0106 34.3188 53.1747C34.316 53.2045 34.3145 53.2345 34.3145 53.2642V62.9852C34.3145 63.5017 34.7332 63.9205 35.2497 63.9205H46.0243C46.5408 63.9205 46.9596 63.5017 46.9596 62.9852V56.2866L53.8441 50.6646C57.5632 47.6276 59.1059 42.4882 60.4671 37.954C60.6189 37.4481 60.7688 36.9484 60.9197 36.4589L63.8748 26.8692C64.1171 26.0831 64.005 25.2321 63.5672 24.5351ZM49.4785 32.0181L49.3505 32.4304L48.522 35.0985L46.0991 37.4652L48.0235 31.5555C48.1277 31.2354 48.4203 31.0281 48.7466 31.0281C48.7882 31.0281 48.8305 31.0315 48.873 31.0385C49.1713 31.0874 49.3305 31.28 49.3987 31.3904C49.467 31.5009 49.5681 31.7292 49.4785 32.0181ZM53.6185 29.6591L53.2598 30.7682L52.4766 33.19C52.3245 33.1462 52.1676 33.117 52.008 33.1C52.007 33.0999 52.0061 33.0997 52.0052 33.0996C51.9182 33.0904 51.8306 33.0837 51.7421 33.0827C51.731 33.0826 51.7198 33.0825 51.7088 33.0825C51.4962 33.0825 51.2872 33.1065 51.0848 33.1531L51.2651 32.5729V32.5726L52.2996 29.241C52.4092 28.8882 52.7755 28.684 53.1331 28.7765C53.3197 28.8246 53.4736 28.9441 53.5666 29.113C53.6596 29.2819 53.678 29.4757 53.6185 29.6591ZM57.9523 26.9579L56.5065 31.7942C56.3777 32.2247 56.2358 32.6492 56.0811 33.0672C55.6168 34.3212 55.0367 35.5171 54.3486 36.6435C54.3488 36.6427 54.349 36.642 54.3492 36.6412C54.3652 36.5884 54.379 36.5351 54.3916 36.4816C54.3957 36.4644 54.3991 36.447 54.4028 36.4296C54.4111 36.3917 54.4186 36.3537 54.4252 36.3156C54.4286 36.2962 54.4317 36.277 54.4347 36.2575C54.4405 36.2194 54.4453 36.181 54.4495 36.1427C54.4513 36.1251 54.4536 36.1077 54.4552 36.09C54.4601 36.0361 54.4637 35.9821 54.4653 35.928C54.4653 35.9267 54.4655 35.9254 54.4656 35.924C54.4672 35.8686 54.4667 35.8132 54.4651 35.758C54.4646 35.7406 54.4633 35.7235 54.4625 35.7062C54.4606 35.6675 54.458 35.6287 54.4545 35.5901C54.4527 35.5707 54.4507 35.5515 54.4486 35.5321C54.4442 35.4937 54.439 35.4554 54.4331 35.4171C54.4305 35.3999 54.4281 35.3827 54.4251 35.3655C54.4158 35.3126 54.4055 35.26 54.3933 35.2077C54.3928 35.2059 54.3926 35.204 54.3921 35.202C54.3792 35.148 54.3645 35.0944 54.3485 35.0411C54.3435 35.0245 54.3378 35.0082 54.3325 34.9917C54.3205 34.9545 54.3078 34.9175 54.2943 34.8807C54.2875 34.8624 54.2805 34.8441 54.2733 34.8259C54.259 34.7896 54.244 34.7536 54.228 34.718C54.2207 34.7016 54.2137 34.6854 54.2062 34.6691C54.1835 34.6207 54.1597 34.5727 54.1341 34.5255C54.1327 34.523 54.1316 34.5205 54.1302 34.518C54.1063 34.4742 54.0812 34.431 54.0548 34.3882L55.3982 30.2345L55.3983 30.2342L56.5948 26.535C56.7035 26.1991 57.0476 25.9926 57.3956 26.054C57.6686 26.1026 57.8141 26.2799 57.8765 26.3812C57.9388 26.4827 58.0317 26.6922 57.9523 26.9579Z" fill="white"/>
<path d="M29.6813 53.1751C29.6639 52.9884 29.2132 48.562 26.691 44.9791C24.6227 42.0405 21.7976 40.573 20.7243 40.094L17.7553 30.9764C17.3498 29.7309 16.1165 28.9806 14.8247 29.1926C14.4438 29.2551 14.0865 29.3996 13.7743 29.611L13.4872 28.6865C13.0814 27.3795 11.7254 26.6233 10.4003 26.9651C10.1213 27.0371 9.85992 27.1579 9.62355 27.3151L9.18517 25.9599C8.79042 24.739 7.54005 23.9875 6.27692 24.2126C5.91192 24.2776 5.56942 24.42 5.26967 24.6254C4.6998 23.633 3.57655 23.0673 2.40267 23.2448C1.5888 23.3678 0.870799 23.8381 0.433049 24.5351C-0.00482613 25.2321 -0.116951 26.083 0.125549 26.8695L3.08067 36.4591C3.23155 36.9489 3.38155 37.4485 3.53342 37.9544C4.6933 41.8179 6.00792 46.1969 8.71042 49.2661C9.05167 49.6539 9.6428 49.6914 10.0304 49.3499C10.418 49.0086 10.4557 48.4175 10.1142 48.0298C7.68192 45.2675 6.42955 41.0965 5.32492 37.4164C5.17167 36.9061 5.02042 36.402 4.86817 35.9081L1.91305 26.3184C1.82992 26.0488 1.8668 25.7689 2.01692 25.5299C2.16705 25.2909 2.4033 25.1363 2.68217 25.0939C3.14355 25.024 3.58317 25.2939 3.73017 25.7359L4.25517 27.492C4.2553 27.4924 4.25542 27.4928 4.25542 27.4931L5.7013 32.3295C5.75092 32.4955 5.80292 32.6605 5.85605 32.8248C7.16392 36.8646 9.54817 40.3955 12.7983 43.1123C12.8545 43.1593 12.9112 43.2058 12.9679 43.2523C13.1609 43.4104 13.3562 43.5664 13.5552 43.7189L17.4069 46.6709C17.4463 46.701 17.4876 46.7269 17.5301 46.75C17.5347 46.7525 17.5393 46.7554 17.5439 46.7579C17.5845 46.7791 17.6264 46.7966 17.6692 46.8115C17.6758 46.8138 17.6823 46.8163 17.689 46.8184C17.7313 46.832 17.7742 46.8426 17.8177 46.8499C17.8244 46.851 17.8312 46.852 17.8379 46.853C17.882 46.8596 17.9264 46.8635 17.9708 46.8636C17.9724 46.8636 17.974 46.864 17.9757 46.864C17.9834 46.864 17.9911 46.8631 17.9988 46.8629C18.0181 46.8624 18.037 46.8618 18.0563 46.8601C18.0673 46.8591 18.0782 46.8576 18.0889 46.8564C18.107 46.8541 18.125 46.8516 18.143 46.8484C18.1544 46.8464 18.1657 46.8439 18.1768 46.8414C18.1942 46.8375 18.2113 46.8333 18.2284 46.8285C18.2399 46.8253 18.2512 46.8219 18.2624 46.8183C18.2792 46.8129 18.2957 46.8069 18.3122 46.8005C18.3234 46.7963 18.3346 46.7919 18.3456 46.7871C18.3619 46.7801 18.3778 46.7724 18.3938 46.7644C18.4045 46.759 18.4153 46.7539 18.4257 46.748C18.4418 46.7391 18.4574 46.7294 18.4732 46.7195C18.4829 46.7134 18.4928 46.7076 18.5022 46.7011C18.5189 46.6896 18.535 46.6771 18.5512 46.6646C18.559 46.6585 18.5672 46.6529 18.5749 46.6464C18.5984 46.6268 18.621 46.6061 18.6429 46.5839C18.9739 46.247 19.0018 45.7164 18.708 45.3466L11.5947 36.3933C11.5773 36.3714 11.5612 36.349 11.5462 36.326C11.3213 35.9815 11.3623 35.5195 11.6548 35.2201C11.8205 35.0504 12.0425 34.9554 12.2797 34.9526C12.2799 34.9526 12.28 34.9526 12.2803 34.9526C12.5184 34.9506 12.7412 35.0398 12.9108 35.2054L19.3139 41.4599C19.3373 41.4828 19.3615 41.5039 19.3868 41.5238C19.3899 41.5261 19.3932 41.5283 19.3963 41.5306C19.4189 41.5481 19.4421 41.5646 19.4659 41.5799C19.4703 41.5826 19.4749 41.585 19.4793 41.5876C19.5021 41.6015 19.5249 41.6146 19.5485 41.6265C19.5565 41.6305 19.5648 41.6339 19.5729 41.6376C19.5928 41.6469 19.6127 41.6559 19.633 41.6636C19.6365 41.665 19.6399 41.6668 19.6434 41.6681C19.6763 41.6804 22.9614 42.9296 25.1614 46.0551C27.2745 49.0573 27.7664 52.8861 27.8155 53.3144V62.0496H18.9114V55.8426C18.9114 55.5618 18.7852 55.2958 18.5678 55.1183L12.9187 50.5051C12.5187 50.1783 11.9294 50.2379 11.6027 50.638C11.2759 51.038 11.3354 51.6273 11.7355 51.954L17.041 56.2865V62.9851C17.041 63.5016 17.4598 63.9204 17.9763 63.9204H28.7509C29.2674 63.9204 29.6862 63.5016 29.6862 62.9851V53.2641C29.6857 53.2348 29.6842 53.2049 29.6813 53.1751ZM9.87005 34.5183C9.86855 34.521 9.8673 34.5239 9.86567 34.5268C9.8403 34.5738 9.81655 34.6214 9.79405 34.6694C9.7863 34.6859 9.7793 34.7024 9.77192 34.7189C9.75617 34.7543 9.74117 34.79 9.72692 34.8259C9.71967 34.8444 9.71255 34.8628 9.70567 34.8814C9.69217 34.9179 9.67967 34.9549 9.6678 34.9918C9.66242 35.0084 9.6568 35.0248 9.65167 35.0415C9.63567 35.0946 9.62092 35.1481 9.60817 35.202C9.60742 35.2049 9.60705 35.2079 9.6063 35.2108C9.5943 35.2619 9.58405 35.3135 9.57517 35.3651C9.57205 35.383 9.56955 35.4008 9.5668 35.4186C9.56092 35.4563 9.5558 35.494 9.55155 35.5318C9.5493 35.5515 9.5473 35.5713 9.54555 35.591C9.54205 35.629 9.53955 35.6671 9.53767 35.7054C9.5368 35.7233 9.53555 35.7409 9.53505 35.7588C9.53342 35.8139 9.53292 35.869 9.53455 35.9241C9.53455 35.926 9.5348 35.9279 9.53492 35.9299C9.53655 35.9834 9.54017 36.0369 9.54492 36.0903C9.54642 36.1079 9.54867 36.1253 9.55067 36.1429C9.55492 36.1813 9.55967 36.2198 9.56555 36.258C9.56842 36.2773 9.57155 36.2963 9.57492 36.3155C9.58167 36.354 9.5893 36.3926 9.59767 36.4309C9.6013 36.4478 9.60467 36.4645 9.60867 36.4813C9.62155 36.5356 9.63567 36.5899 9.6518 36.6435C8.73442 35.1418 8.0088 33.5163 7.49405 31.7944L6.04817 26.958C5.96867 26.6924 6.06142 26.4828 6.1238 26.3815C6.18617 26.2801 6.33167 26.1029 6.60467 26.0544C6.64592 26.047 6.68717 26.0435 6.72805 26.0435C7.03092 26.0435 7.3098 26.2393 7.40555 26.5356L9.09605 31.7623L9.94555 34.3888C9.91892 34.4313 9.8938 34.4745 9.87005 34.5183ZM12.8199 33.1361C12.8028 33.1328 12.7859 33.129 12.7688 33.126C12.6934 33.1129 12.6177 33.1029 12.5415 33.0961C12.5234 33.0945 12.5053 33.0936 12.4872 33.0924C12.4225 33.0878 12.3579 33.0855 12.2933 33.0854C12.2762 33.0854 12.2592 33.0848 12.2419 33.0851C12.1654 33.0865 12.0892 33.0911 12.013 33.0988C11.995 33.1005 11.9774 33.1031 11.9595 33.1053C11.894 33.1131 11.8288 33.1233 11.764 33.1358C11.7485 33.1388 11.7332 33.1411 11.7178 33.1444C11.6529 33.1581 11.5883 33.1734 11.5244 33.1919L10.7683 30.8545L10.3817 29.6593C10.3223 29.4759 10.3409 29.282 10.4338 29.113C10.5267 28.944 10.6805 28.8244 10.8673 28.7764C10.9253 28.7614 10.9835 28.7541 11.0409 28.7541C11.337 28.7541 11.6089 28.9454 11.7007 29.2411L12.7352 32.5726L12.7353 32.573L12.9162 33.1551C12.8843 33.1479 12.852 33.1424 12.8199 33.1361ZM17.153 36.7345L15.4783 35.0985L14.6498 32.4304L14.5217 32.0181C14.4322 31.7293 14.5333 31.501 14.6014 31.3905C14.6695 31.28 14.8288 31.0875 15.1273 31.0386C15.5023 30.9766 15.859 31.1946 15.9767 31.5556L17.901 37.4653L17.153 36.7345Z" fill="white"/>
</g>
<defs>
<clipPath id="clip0_520_8633">
<rect width="64" height="64" fill="white"/>
</clipPath>
</defs>
</svg>
