<svg width="164" height="164" viewBox="0 0 164 164" fill="none" xmlns="http://www.w3.org/2000/svg">
<circle cx="82" cy="82" r="82" fill="#F01543" fill-opacity="0.2"/>
<circle cx="82" cy="82" r="58" fill="#F01543"/>
<g clip-path="url(#clip0_520_8586)">
<path d="M91.7896 68.999C92.3242 68.4778 92.5129 67.713 92.2823 67.0029C92.0516 66.2929 91.4492 65.785 90.7104 65.6778L85.3458 64.8981C85.3208 64.8945 85.2994 64.8789 85.2882 64.8563L82.8891 59.9953C82.5586 59.3258 81.8896 58.9099 81.1429 58.9099C80.3963 58.9099 79.7272 59.3258 79.3968 59.9953L76.9977 64.8563C76.9866 64.8789 76.9651 64.8945 76.9399 64.8981L71.5754 65.6778C70.8366 65.785 70.2344 66.2928 70.0036 67.0029C69.7727 67.7129 69.9616 68.4779 70.4963 68.999L74.3782 72.7829C74.3963 72.8005 74.4043 72.8258 74.4002 72.8508L73.4839 78.1936C73.3577 78.9295 73.6546 79.6591 74.2584 80.0981C74.8624 80.5371 75.6481 80.5939 76.3092 80.2464L81.1074 77.7238C81.1298 77.712 81.1564 77.712 81.1788 77.7238L85.9771 80.2464C86.2646 80.3973 86.5756 80.472 86.8851 80.472C87.2871 80.472 87.6866 80.346 88.0277 80.098C88.6317 79.6591 88.9286 78.9294 88.8023 78.1935L88.6687 77.4145C88.5814 76.9054 88.0976 76.5631 87.5888 76.6509C87.0798 76.7383 86.7378 77.2218 86.8252 77.7308L86.9588 78.5098C86.9621 78.5285 86.9668 78.5566 86.9283 78.5848C86.8899 78.6128 86.8645 78.5996 86.8477 78.5906L82.0494 76.068C81.4821 75.7698 80.8047 75.7698 80.2373 76.068L75.4392 78.5906C75.4223 78.5995 75.3969 78.6128 75.3586 78.5848C75.3201 78.5569 75.3249 78.5285 75.3282 78.5098L76.2446 73.167C76.3529 72.5351 76.1436 71.8908 75.6846 71.4434L71.8027 67.6595C71.7891 67.6463 71.7686 67.6263 71.7832 67.5809C71.7979 67.5356 71.8262 67.5315 71.8451 67.5288L77.2094 66.7493C77.8438 66.6571 78.3918 66.2589 78.6757 65.684L81.0748 60.823C81.0832 60.8059 81.096 60.7803 81.1436 60.7803C81.1912 60.7803 81.2038 60.806 81.2123 60.823L83.6113 65.6839C83.8951 66.2588 84.4431 66.657 85.0774 66.7493L90.4421 67.5289C90.4608 67.5315 90.4892 67.5358 90.504 67.581C90.5187 67.6263 90.4981 67.6464 90.4846 67.6596L86.6026 71.4435C86.1437 71.8909 85.9345 72.5351 86.0427 73.167L86.1913 74.0338C86.2787 74.5429 86.7619 74.8849 87.2712 74.7974C87.7803 74.7101 88.1222 74.2265 88.0348 73.7175L87.8862 72.8509C87.8819 72.8259 87.8902 72.8005 87.9082 72.7829L91.7896 68.999Z" fill="white"/>
<path d="M68.8079 56.3678C68.6063 55.7471 68.0799 55.3033 67.434 55.2095L63.4571 54.6316L61.6788 51.0278C61.39 50.4425 60.8051 50.079 60.1525 50.079C59.4999 50.079 58.9151 50.4425 58.6263 51.0278L56.8479 54.6315L52.871 55.2094C52.2251 55.3033 51.6988 55.7471 51.4971 56.3676C51.2955 56.9883 51.4605 57.6568 51.9279 58.1124L54.8055 60.9175L54.1261 64.8784C54.0158 65.5216 54.2753 66.1595 54.8033 66.543C55.1015 66.7598 55.4505 66.8699 55.8019 66.8699C56.0724 66.8698 56.3444 66.8046 56.5955 66.6725L60.1525 64.8025L63.7095 66.6725C64.2871 66.9763 64.9739 66.9266 65.5019 66.543C66.0299 66.1594 66.2894 65.5216 66.179 64.8784L65.4996 60.9176L68.3774 58.1126C68.8445 57.657 69.0095 56.9885 68.8079 56.3678ZM64.1304 59.64C63.7293 60.0313 63.5463 60.5944 63.641 61.1464L64.2776 64.8578L60.9444 63.1054C60.4486 62.8448 59.8565 62.8449 59.3605 63.1054L56.0274 64.8576L56.664 61.146C56.7586 60.5939 56.5758 60.0308 56.1745 59.6398L53.478 57.0114L57.2045 56.4698C57.7588 56.3893 58.2379 56.0411 58.4859 55.5388L60.1524 52.162L61.8191 55.539C62.0671 56.0413 62.5461 56.3893 63.1004 56.4698L66.8269 57.0114L64.1304 59.64Z" fill="white"/>
<path d="M110.789 56.3675C110.587 55.7469 110.061 55.303 109.415 55.2091L105.438 54.6313L103.659 51.0278C103.371 50.4425 102.786 50.079 102.133 50.079C101.481 50.079 100.896 50.4425 100.607 51.0278L98.8285 54.6314L94.8516 55.2093C94.2057 55.3031 93.6794 55.747 93.4776 56.3676C93.276 56.9883 93.441 57.6568 93.9084 58.1124L96.7861 60.9174L96.1067 64.8781C95.9964 65.5214 96.2559 66.1591 96.7839 66.5428C97.0821 66.7595 97.4311 66.8696 97.7825 66.8696C98.053 66.8695 98.325 66.8044 98.5761 66.6723L102.133 64.8023L105.69 66.6723C106.268 66.976 106.954 66.9264 107.482 66.5426C108.01 66.159 108.27 65.5213 108.159 64.8781L107.48 60.9173L110.358 58.1123C110.825 57.6568 110.99 56.9883 110.789 56.3675ZM106.111 59.6399C105.71 60.031 105.527 60.5943 105.622 61.1463L106.258 64.8578L102.925 63.1055C102.677 62.9751 102.405 62.91 102.133 62.91C101.861 62.91 101.589 62.9753 101.341 63.1055L98.008 64.8578L98.6446 61.1461C98.7392 60.594 98.5564 60.0308 98.155 59.6399L95.4584 57.0114L99.1852 56.4698C99.7396 56.3893 100.219 56.0411 100.467 55.5388L102.133 52.162L103.8 55.5388C104.048 56.0411 104.527 56.3893 105.081 56.4698L108.808 57.0114L106.111 59.6399Z" fill="white"/>
<path d="M113.567 74.5351C113.129 73.8381 112.411 73.3677 111.598 73.2447C110.424 73.0671 109.301 73.633 108.731 74.6254C108.431 74.42 108.088 74.2776 107.723 74.2126C106.46 73.988 105.21 74.7391 104.815 75.9599L104.377 77.3151C104.14 77.1577 103.879 77.037 103.6 76.9651C102.275 76.6235 100.919 77.3796 100.513 78.6865L100.226 79.611C99.914 79.3996 99.5567 79.2551 99.176 79.1926C97.8832 78.9807 96.6507 79.7309 96.2452 80.9764L93.2761 90.0946C92.5686 90.4112 91.0967 91.1595 89.5826 92.4751C89.1927 92.814 89.1513 93.4047 89.4902 93.7946C89.8291 94.1845 90.4197 94.2259 90.8097 93.887C92.5965 92.3342 94.3398 91.675 94.3553 91.6692C94.3592 91.6679 94.3627 91.6659 94.3666 91.6644C94.3853 91.6572 94.4036 91.649 94.422 91.6406C94.4323 91.6359 94.443 91.6315 94.4531 91.6262C94.4726 91.6165 94.4913 91.6055 94.5102 91.5944C94.5187 91.5894 94.5275 91.5847 94.5357 91.5795C94.5563 91.5662 94.5762 91.5519 94.596 91.5369C94.6018 91.5325 94.6081 91.5285 94.6138 91.524C94.639 91.5041 94.6632 91.483 94.6866 91.4601L98.8532 87.3901L101.09 85.2056C101.259 85.0402 101.487 84.9496 101.719 84.953C101.72 84.953 101.72 84.953 101.721 84.953C101.958 84.9557 102.18 85.0507 102.346 85.2205C102.521 85.4 102.606 85.6379 102.597 85.874C102.597 85.874 102.597 85.8744 102.597 85.8746C102.593 85.9796 102.571 86.0841 102.53 86.1831C102.499 86.2574 102.458 86.3282 102.406 86.3937L95.2922 95.3471C94.9985 95.7169 95.0263 96.2476 95.3573 96.5844C95.3791 96.6066 95.4018 96.6271 95.4252 96.6467C95.4332 96.6534 95.4417 96.6592 95.4498 96.6656C95.4656 96.678 95.4813 96.6902 95.4977 96.7012C95.5077 96.7081 95.5181 96.7141 95.5282 96.7205C95.5435 96.73 95.5585 96.7395 95.5741 96.748C95.5852 96.7541 95.5966 96.7596 95.6077 96.7652C95.623 96.7729 95.6382 96.7802 95.6538 96.787C95.6656 96.7921 95.6776 96.7967 95.6893 96.8014C95.705 96.8074 95.7206 96.813 95.7366 96.8182C95.7487 96.8221 95.7608 96.8259 95.7731 96.8292C95.7893 96.8337 95.8055 96.8377 95.822 96.8414C95.8342 96.844 95.8463 96.8467 95.8585 96.8489C95.8753 96.8519 95.8922 96.8542 95.9092 96.8564C95.9212 96.8579 95.9331 96.8595 95.9451 96.8605C95.963 96.862 95.9808 96.8626 95.9987 96.8631C96.0073 96.8634 96.016 96.8644 96.0246 96.8644C96.0265 96.8644 96.0282 96.864 96.0301 96.8639C96.0741 96.8636 96.118 96.8597 96.1617 96.8532C96.169 96.8522 96.1761 96.8512 96.1832 96.85C96.2262 96.8426 96.2687 96.8321 96.3108 96.8187C96.3178 96.8165 96.3247 96.814 96.3316 96.8116C96.374 96.7969 96.4156 96.7795 96.4561 96.7584C96.461 96.7559 96.4657 96.7529 96.4706 96.7502C96.5128 96.7272 96.554 96.7015 96.5933 96.6715L100.445 93.7195C103.749 91.1876 106.241 87.8559 107.725 84.0094C107.937 83.4599 108.129 82.8999 108.299 82.3301L110.27 75.7364C110.417 75.2944 110.856 75.0252 111.318 75.0944C111.597 75.1365 111.833 75.2914 111.983 75.5304C112.134 75.7694 112.17 76.0494 112.087 76.319L109.132 85.9086C108.98 86.4025 108.829 86.9065 108.676 87.4167C107.392 91.6939 105.936 96.5417 102.661 99.2162L95.4327 105.119C95.2151 105.296 95.0891 105.562 95.0891 105.843V112.05H86.185V103.315C86.2313 102.911 86.664 99.542 88.444 96.6555C88.7151 96.2159 88.5785 95.6396 88.1388 95.3686C87.699 95.0974 87.123 95.2341 86.852 95.6737C84.7301 99.1146 84.3347 103.011 84.3188 103.175C84.316 103.204 84.3145 103.234 84.3145 103.264V112.985C84.3145 113.502 84.7332 113.92 85.2497 113.92H96.0243C96.5408 113.92 96.9596 113.502 96.9596 112.985V106.287L103.844 100.665C107.563 97.6276 109.106 92.4882 110.467 87.954C110.619 87.4481 110.769 86.9484 110.92 86.4589L113.875 76.8692C114.117 76.0831 114.005 75.2321 113.567 74.5351ZM99.4785 82.0181L99.3505 82.4304L98.522 85.0985L96.0991 87.4652L98.0235 81.5555C98.1277 81.2354 98.4203 81.0281 98.7466 81.0281C98.7882 81.0281 98.8305 81.0315 98.873 81.0385C99.1713 81.0874 99.3305 81.28 99.3987 81.3904C99.467 81.5009 99.5681 81.7292 99.4785 82.0181ZM103.618 79.6591L103.26 80.7682L102.477 83.19C102.324 83.1462 102.168 83.117 102.008 83.1C102.007 83.0999 102.006 83.0997 102.005 83.0996C101.918 83.0904 101.831 83.0837 101.742 83.0827C101.731 83.0826 101.72 83.0825 101.709 83.0825C101.496 83.0825 101.287 83.1065 101.085 83.1531L101.265 82.5729V82.5726L102.3 79.241C102.409 78.8882 102.775 78.684 103.133 78.7765C103.32 78.8246 103.474 78.9441 103.567 79.113C103.66 79.2819 103.678 79.4757 103.618 79.6591ZM107.952 76.9579L106.506 81.7942C106.378 82.2247 106.236 82.6492 106.081 83.0672C105.617 84.3212 105.037 85.5171 104.349 86.6435C104.349 86.6427 104.349 86.642 104.349 86.6412C104.365 86.5884 104.379 86.5351 104.392 86.4816C104.396 86.4644 104.399 86.447 104.403 86.4296C104.411 86.3917 104.419 86.3537 104.425 86.3156C104.429 86.2962 104.432 86.277 104.435 86.2575C104.44 86.2194 104.445 86.181 104.449 86.1427C104.451 86.1251 104.454 86.1077 104.455 86.09C104.46 86.0361 104.464 85.9821 104.465 85.928C104.465 85.9267 104.465 85.9254 104.466 85.924C104.467 85.8686 104.467 85.8132 104.465 85.758C104.465 85.7406 104.463 85.7235 104.462 85.7062C104.461 85.6675 104.458 85.6287 104.454 85.5901C104.453 85.5707 104.451 85.5515 104.449 85.5321C104.444 85.4937 104.439 85.4554 104.433 85.4171C104.43 85.3999 104.428 85.3827 104.425 85.3655C104.416 85.3126 104.405 85.26 104.393 85.2077C104.393 85.2059 104.393 85.204 104.392 85.202C104.379 85.148 104.364 85.0944 104.348 85.0411C104.343 85.0245 104.338 85.0082 104.332 84.9917C104.32 84.9545 104.308 84.9175 104.294 84.8807C104.287 84.8624 104.28 84.8441 104.273 84.8259C104.259 84.7896 104.244 84.7536 104.228 84.718C104.221 84.7016 104.214 84.6854 104.206 84.6691C104.183 84.6207 104.16 84.5727 104.134 84.5255C104.133 84.523 104.132 84.5205 104.13 84.518C104.106 84.4742 104.081 84.431 104.055 84.3882L105.398 80.2345L105.398 80.2342L106.595 76.535C106.703 76.1991 107.048 75.9926 107.396 76.054C107.669 76.1026 107.814 76.2799 107.876 76.3812C107.939 76.4827 108.032 76.6922 107.952 76.9579Z" fill="white"/>
<path d="M79.6813 103.175C79.6639 102.988 79.2132 98.562 76.691 94.9791C74.6227 92.0405 71.7976 90.573 70.7243 90.094L67.7553 80.9764C67.3498 79.7309 66.1165 78.9806 64.8247 79.1926C64.4438 79.2551 64.0865 79.3996 63.7743 79.611L63.4872 78.6865C63.0814 77.3795 61.7254 76.6233 60.4003 76.9651C60.1213 77.0371 59.8599 77.1579 59.6235 77.3151L59.1852 75.9599C58.7904 74.739 57.54 73.9875 56.2769 74.2126C55.9119 74.2776 55.5694 74.42 55.2697 74.6254C54.6998 73.633 53.5765 73.0673 52.4027 73.2448C51.5888 73.3678 50.8708 73.8381 50.433 74.5351C49.9952 75.2321 49.883 76.083 50.1255 76.8695L53.0807 86.4591C53.2315 86.9489 53.3815 87.4485 53.5334 87.9544C54.6933 91.8179 56.0079 96.1969 58.7104 99.2661C59.0517 99.6539 59.6428 99.6914 60.0304 99.3499C60.418 99.0086 60.4557 98.4175 60.1142 98.0298C57.6819 95.2675 56.4295 91.0965 55.3249 87.4164C55.1717 86.9061 55.0204 86.402 54.8682 85.9081L51.913 76.3184C51.8299 76.0488 51.8668 75.7689 52.0169 75.5299C52.167 75.2909 52.4033 75.1363 52.6822 75.0939C53.1435 75.024 53.5832 75.2939 53.7302 75.7359L54.2552 77.492C54.2553 77.4924 54.2554 77.4928 54.2554 77.4931L55.7013 82.3295C55.7509 82.4955 55.8029 82.6605 55.856 82.8248C57.1639 86.8646 59.5482 90.3955 62.7983 93.1123C62.8545 93.1593 62.9112 93.2058 62.9679 93.2523C63.1609 93.4104 63.3562 93.5664 63.5552 93.7189L67.4069 96.6709C67.4463 96.701 67.4876 96.7269 67.5301 96.75C67.5347 96.7525 67.5393 96.7554 67.5439 96.7579C67.5845 96.7791 67.6264 96.7966 67.6692 96.8115C67.6758 96.8138 67.6823 96.8163 67.689 96.8184C67.7313 96.832 67.7742 96.8426 67.8177 96.8499C67.8244 96.851 67.8312 96.852 67.8379 96.853C67.882 96.8596 67.9264 96.8635 67.9708 96.8636C67.9724 96.8636 67.974 96.864 67.9757 96.864C67.9834 96.864 67.9911 96.8631 67.9988 96.8629C68.0181 96.8624 68.037 96.8618 68.0563 96.8601C68.0673 96.8591 68.0782 96.8576 68.0889 96.8564C68.107 96.8541 68.125 96.8516 68.143 96.8484C68.1544 96.8464 68.1657 96.8439 68.1768 96.8414C68.1942 96.8375 68.2113 96.8333 68.2284 96.8285C68.2399 96.8253 68.2512 96.8219 68.2624 96.8183C68.2792 96.8129 68.2957 96.8069 68.3122 96.8005C68.3234 96.7963 68.3346 96.7919 68.3456 96.7871C68.3619 96.7801 68.3778 96.7724 68.3938 96.7644C68.4045 96.759 68.4153 96.7539 68.4257 96.748C68.4418 96.7391 68.4574 96.7294 68.4732 96.7195C68.4829 96.7134 68.4928 96.7076 68.5022 96.7011C68.5189 96.6896 68.535 96.6771 68.5512 96.6646C68.559 96.6585 68.5672 96.6529 68.5749 96.6464C68.5984 96.6268 68.621 96.6061 68.6429 96.5839C68.9739 96.247 69.0018 95.7164 68.708 95.3466L61.5947 86.3933C61.5773 86.3714 61.5612 86.349 61.5462 86.326C61.3213 85.9815 61.3623 85.5195 61.6548 85.2201C61.8205 85.0504 62.0425 84.9554 62.2797 84.9526C62.2799 84.9526 62.28 84.9526 62.2803 84.9526C62.5184 84.9506 62.7412 85.0398 62.9108 85.2054L69.3139 91.4599C69.3373 91.4828 69.3615 91.5039 69.3868 91.5238C69.3899 91.5261 69.3932 91.5283 69.3963 91.5306C69.4189 91.5481 69.4421 91.5646 69.4659 91.5799C69.4703 91.5826 69.4749 91.585 69.4793 91.5876C69.5021 91.6015 69.5249 91.6146 69.5485 91.6265C69.5565 91.6305 69.5648 91.6339 69.5729 91.6376C69.5928 91.6469 69.6127 91.6559 69.633 91.6636C69.6365 91.665 69.6399 91.6668 69.6434 91.6681C69.6763 91.6804 72.9614 92.9296 75.1614 96.0551C77.2745 99.0573 77.7664 102.886 77.8155 103.314V112.05H68.9114V105.843C68.9114 105.562 68.7852 105.296 68.5678 105.118L62.9187 100.505C62.5187 100.178 61.9294 100.238 61.6027 100.638C61.2759 101.038 61.3354 101.627 61.7355 101.954L67.041 106.287V112.985C67.041 113.502 67.4598 113.92 67.9763 113.92H78.7509C79.2674 113.92 79.6862 113.502 79.6862 112.985V103.264C79.6857 103.235 79.6842 103.205 79.6813 103.175ZM59.87 84.5183C59.8685 84.521 59.8673 84.5239 59.8657 84.5268C59.8403 84.5738 59.8165 84.6214 59.794 84.6694C59.7863 84.6859 59.7793 84.7024 59.7719 84.7189C59.7562 84.7543 59.7412 84.79 59.7269 84.8259C59.7197 84.8444 59.7125 84.8628 59.7057 84.8814C59.6922 84.9179 59.6797 84.9549 59.6678 84.9918C59.6624 85.0084 59.6568 85.0248 59.6517 85.0415C59.6357 85.0946 59.6209 85.1481 59.6082 85.202C59.6074 85.2049 59.607 85.2079 59.6063 85.2108C59.5943 85.2619 59.584 85.3135 59.5752 85.3651C59.572 85.383 59.5695 85.4008 59.5668 85.4186C59.5609 85.4563 59.5558 85.494 59.5515 85.5318C59.5493 85.5515 59.5473 85.5713 59.5455 85.591C59.542 85.629 59.5395 85.6671 59.5377 85.7054C59.5368 85.7233 59.5355 85.7409 59.535 85.7588C59.5334 85.8139 59.5329 85.869 59.5345 85.9241C59.5345 85.926 59.5348 85.9279 59.5349 85.9299C59.5365 85.9834 59.5402 86.0369 59.5449 86.0903C59.5464 86.1079 59.5487 86.1253 59.5507 86.1429C59.5549 86.1813 59.5597 86.2198 59.5655 86.258C59.5684 86.2773 59.5715 86.2963 59.5749 86.3155C59.5817 86.354 59.5893 86.3926 59.5977 86.4309C59.6013 86.4478 59.6047 86.4645 59.6087 86.4813C59.6215 86.5356 59.6357 86.5899 59.6518 86.6435C58.7344 85.1418 58.0088 83.5163 57.494 81.7944L56.0482 76.958C55.9687 76.6924 56.0614 76.4828 56.1238 76.3815C56.1862 76.2801 56.3317 76.1029 56.6047 76.0544C56.6459 76.047 56.6872 76.0435 56.728 76.0435C57.0309 76.0435 57.3098 76.2393 57.4055 76.5356L59.096 81.7623L59.9455 84.3888C59.9189 84.4313 59.8938 84.4745 59.87 84.5183ZM62.8199 83.1361C62.8028 83.1328 62.7859 83.129 62.7688 83.126C62.6934 83.1129 62.6177 83.1029 62.5415 83.0961C62.5234 83.0945 62.5053 83.0936 62.4872 83.0924C62.4225 83.0878 62.3579 83.0855 62.2933 83.0854C62.2762 83.0854 62.2592 83.0848 62.2419 83.0851C62.1654 83.0865 62.0892 83.0911 62.013 83.0988C61.995 83.1005 61.9774 83.1031 61.9595 83.1053C61.894 83.1131 61.8288 83.1233 61.764 83.1358C61.7485 83.1388 61.7332 83.1411 61.7178 83.1444C61.6529 83.1581 61.5883 83.1734 61.5244 83.1919L60.7683 80.8545L60.3817 79.6593C60.3223 79.4759 60.3409 79.282 60.4338 79.113C60.5267 78.944 60.6805 78.8244 60.8673 78.7764C60.9253 78.7614 60.9835 78.7541 61.0409 78.7541C61.337 78.7541 61.6089 78.9454 61.7007 79.2411L62.7352 82.5726L62.7353 82.573L62.9162 83.1551C62.8843 83.1479 62.852 83.1424 62.8199 83.1361ZM67.153 86.7345L65.4783 85.0985L64.6498 82.4304L64.5217 82.0181C64.4322 81.7293 64.5333 81.501 64.6014 81.3905C64.6695 81.28 64.8288 81.0875 65.1273 81.0386C65.5023 80.9766 65.859 81.1946 65.9767 81.5556L67.901 87.4653L67.153 86.7345Z" fill="white"/>
</g>
<defs>
<clipPath id="clip0_520_8586">
<rect width="64" height="64" fill="white" transform="translate(50 50)"/>
</clipPath>
</defs>
</svg>
