<svg width="20" height="20" viewBox="0 0 20 20" fill="none" xmlns="http://www.w3.org/2000/svg">
    <g clip-path="url(#clip0_548_13287)">
        <path d="M1.66663 5H15C16.8409 5 18.3333 6.49238 18.3333 8.33333V15C18.3333 16.8409 16.8409 18.3333 15 18.3333H4.99996C3.15901 18.3333 1.66663 16.8409 1.66663 15V5Z" stroke="#4D5461" stroke-width="1.5" stroke-linejoin="round"/>
        <path d="M1.66663 5.00008C1.66663 3.15913 3.15901 1.66675 4.99996 1.66675H9.99996C11.8409 1.66675 13.3333 3.15913 13.3333 5.00008H1.66663Z" stroke="#4D5461" stroke-width="1.5" stroke-linejoin="round"/>
        <path d="M18.3334 10L18.3334 13.3333H15C14.0796 13.3333 13.3334 12.5871 13.3334 11.6667C13.3334 10.7462 14.0796 10 15 10L18.3334 10Z" stroke="#4D5461" stroke-width="1.5" stroke-linejoin="round"/>
    </g>
    <defs>
        <clipPath id="clip0_548_13287">
            <rect width="20" height="20" fill="white"/>
        </clipPath>
    </defs>
</svg>
