<svg width="24" height="24" viewBox="0 0 24 24" fill="none" xmlns="http://www.w3.org/2000/svg">
    <path d="M7.95675 22.326L8.34096 19.8856L7.48513 19.8658H3.39844L6.23848 1.85801C6.24693 1.80299 6.27488 1.75284 6.31722 1.7167C6.35956 1.68056 6.41348 1.66084 6.46915 1.66114H13.3599C15.6475 1.66114 17.2262 2.13717 18.0504 3.07675C18.4368 3.51752 18.6829 3.97813 18.8019 4.48502C18.9268 5.01688 18.929 5.65233 18.8071 6.42736L18.7983 6.48392V6.98053L19.1847 7.19944C19.4797 7.34889 19.7448 7.55106 19.9671 7.79596C20.2976 8.17282 20.5114 8.65179 20.6018 9.21965C20.6951 9.80367 20.6642 10.4986 20.5114 11.2854C20.3351 12.1905 20.0501 12.9787 19.6651 13.6237C19.3255 14.2015 18.8688 14.702 18.3244 15.0929C17.8132 15.4558 17.2056 15.7313 16.5188 15.9076C15.8532 16.081 15.0943 16.1684 14.262 16.1684H13.7257C13.3423 16.1684 12.9698 16.3065 12.6774 16.5541C12.3855 16.8043 12.1918 17.15 12.1309 17.5297L12.0905 17.7493L11.4117 22.0505L11.3808 22.2085C11.3727 22.2584 11.3588 22.2834 11.3382 22.3003C11.3183 22.3166 11.2934 22.3257 11.2677 22.326H7.95675Z" fill="#253B80"/>
    <path d="M19.5515 6.54199C19.5309 6.67349 19.5074 6.80793 19.4809 6.94603C18.5722 11.6116 15.4633 13.2234 11.4927 13.2234H9.471C8.98541 13.2234 8.57623 13.576 8.50056 14.055L7.46548 20.6195L7.17237 22.4803C7.16069 22.5541 7.16515 22.6296 7.18543 22.7015C7.20572 22.7735 7.24135 22.8401 7.28987 22.897C7.3384 22.9538 7.39866 22.9994 7.46651 23.0307C7.53437 23.062 7.6082 23.0783 7.68293 23.0783H11.2686C11.6932 23.0783 12.0539 22.7698 12.1208 22.351L12.156 22.1689L12.8312 17.8845L12.8745 17.6495C12.9406 17.2293 13.302 16.9207 13.7267 16.9207H14.2629C17.737 16.9207 20.4565 15.5102 21.2514 11.4287C21.5834 9.72364 21.4115 8.29994 20.5329 7.29865C20.2544 6.98891 19.9219 6.7325 19.5515 6.54199Z" fill="#179BD7"/>
    <path d="M18.6003 6.16237C18.3101 6.07843 18.015 6.01292 17.7165 5.96623C17.1269 5.87561 16.5309 5.83213 15.9343 5.8362H10.5334C10.3279 5.83604 10.1291 5.90942 9.97291 6.04308C9.81676 6.17673 9.71357 6.36184 9.682 6.56494L8.53306 13.8421L8.5 14.0544C8.53579 13.8227 8.65332 13.6115 8.83131 13.459C9.00931 13.3065 9.23602 13.2227 9.47043 13.2228H11.4921C15.4627 13.2228 18.5716 11.6103 19.4804 6.94548C19.5075 6.80737 19.5303 6.67293 19.5509 6.54144C19.3111 6.41569 19.0612 6.31027 18.8038 6.22628C18.7363 6.20389 18.6684 6.18259 18.6003 6.16237Z" fill="#222D65"/>
    <path d="M9.68172 6.56503C9.71302 6.36187 9.81615 6.17667 9.97239 6.04308C10.1286 5.90949 10.3276 5.83638 10.5331 5.83702H15.9341C16.5739 5.83702 17.1712 5.87889 17.7163 5.96705C18.0851 6.02502 18.4489 6.11172 18.8042 6.22637C19.0724 6.31526 19.3214 6.42031 19.5514 6.54152C19.8217 4.81736 19.5492 3.64344 18.6169 2.58044C17.5892 1.41019 15.7343 0.90918 13.3607 0.90918H6.46996C5.98511 0.90918 5.57152 1.2618 5.49658 1.74151L2.62642 19.9344C2.61305 20.0189 2.61814 20.1052 2.64133 20.1875C2.66452 20.2698 2.70527 20.3462 2.76077 20.4112C2.81626 20.4763 2.8852 20.5285 2.96282 20.5644C3.04045 20.6003 3.12493 20.6189 3.21044 20.6191H7.46463L8.53277 13.8422L9.68172 6.56503Z" fill="#253B80"/>
</svg>
