<svg width="52" height="52" viewBox="0 0 52 52" fill="none" xmlns="http://www.w3.org/2000/svg">
    <path d="M47.23 35.1953H44.1576C43.6167 35.1953 43.1333 35.4404 42.8088 35.8226L40.7243 31.9567C40.1519 30.8636 40.4287 30.0791 40.3566 28.3001C40.3566 27.1605 39.4332 26.2371 38.301 26.2371C36.2309 26.2371 34.5505 27.9176 34.5505 29.9877C34.576 30.714 34.4647 31.3672 34.7525 32.2596L35.0409 33.2119H29.8335C28.6144 33.2119 27.4822 34.1927 27.3666 35.3538C27.3018 35.9455 27.4677 36.5297 27.8139 37.0055C27.2657 37.395 26.8907 37.9937 26.8257 38.6787C26.7181 39.6809 27.27 40.6646 28.1962 41.0805C27.9653 41.5063 27.8572 41.9895 27.9076 42.4801C27.9942 43.4031 28.6577 44.1747 29.5304 44.485C29.3286 44.8889 29.242 45.3503 29.2853 45.812C29.4078 46.9731 30.533 47.9469 31.7519 47.9469H41.0923C41.2004 47.9469 41.3158 47.9254 41.4096 47.8747L42.4482 47.3626C42.6285 48.1416 43.3281 48.7259 44.1576 48.7259H47.23C48.1893 48.7259 48.9828 47.9398 48.9828 46.9731V36.9478C48.9828 35.9814 48.1893 35.1953 47.23 35.1953ZM31.7519 46.5044C31.2687 46.5044 30.7639 46.1004 30.7206 45.668C30.6635 45.1264 31.0741 44.622 31.6582 44.622H33.7787C34.1826 44.622 34.4999 44.2973 34.4999 43.9007C34.4999 43.5042 34.1826 43.1795 33.7787 43.1795C33.6477 43.1795 30.2384 43.1795 30.3672 43.1795C29.8407 43.1795 29.3862 42.8118 29.343 42.3427C29.3142 42.0687 29.4006 41.8092 29.5809 41.6074C30.0442 41.1062 30.5547 41.3793 32.3651 41.3042C32.7616 41.3042 33.0863 40.9798 33.0863 40.5829C33.0863 40.179 32.7616 39.8617 32.3651 39.8617C32.256 39.8617 28.9903 39.8617 29.1916 39.8617C28.6529 39.8617 28.2007 39.3898 28.2612 38.816C28.3043 38.3469 28.7588 37.9793 29.2853 37.9793C29.4516 37.9793 31.9634 37.9793 31.86 37.9793C32.2569 37.9793 32.5813 37.6546 32.5813 37.258C32.5813 36.8541 32.2569 36.5368 31.86 36.5368H29.7396C29.1808 36.5368 28.7424 36.0502 28.8021 35.4982C28.8452 35.0654 29.343 34.6544 29.8335 34.6544H36.0147C36.5024 34.6544 36.8485 34.1962 36.707 33.7239L36.13 31.8342C35.9201 31.134 36.0183 30.7695 35.993 29.9877C35.993 28.7185 37.0316 27.6796 38.301 27.6796C38.6399 27.6796 38.9141 27.961 38.9141 28.3001C38.9976 29.9395 38.6504 31.1321 39.455 32.6421L41.6475 36.6952C41.6836 36.7674 41.7341 36.8326 41.7917 36.883L42.4049 37.4528V45.7687L40.9263 46.5044H31.7519ZM44.9942 46.4829C44.5844 46.4829 44.2513 46.1464 44.2513 45.7398C44.2513 45.3433 44.5686 45.0185 44.9726 45.0045H44.9942C45.4054 45.0045 45.7299 45.3362 45.7299 45.7398C45.7299 46.1511 45.4054 46.4829 44.9942 46.4829Z" fill="white"/>
    <path d="M24.1787 37.0055C24.5321 36.5297 24.6908 35.9455 24.6332 35.3538C24.5177 34.1927 23.3853 33.2119 22.1664 33.2119H16.9517L17.2475 32.2596C17.5309 31.3308 17.4179 30.6805 17.4423 29.9877C17.4423 27.9176 15.7617 26.2371 13.6989 26.2371C10.4364 26.2371 12.3215 30.0048 11.2683 31.9567L9.1838 35.8226C8.85927 35.4404 8.37608 35.1953 7.83514 35.1953H4.76981C3.81049 35.1953 3.01721 35.9814 3.01721 36.9478V46.9731C3.01721 47.9398 3.81049 48.7259 4.76981 48.7259H7.83514C8.66451 48.7259 9.36411 48.1416 9.54442 47.3626L10.583 47.8747C10.6841 47.9254 10.7922 47.9469 10.9077 47.9469H20.2407C21.4596 47.9469 22.592 46.9731 22.7073 45.812C22.7579 45.3503 22.6714 44.8889 22.4622 44.485C23.3349 44.1747 23.9984 43.4031 24.0922 42.4801C24.1354 41.9895 24.0345 41.5063 23.8036 41.0805C24.6766 40.6885 25.2764 39.7375 25.1741 38.6787C25.1091 37.9937 24.7269 37.395 24.1787 37.0055ZM21.6327 43.1795C21.3513 43.1795 18.1303 43.1795 18.2139 43.1795C17.8174 43.1795 17.4927 43.5042 17.4927 43.9007C17.4927 44.2973 17.8174 44.622 18.2139 44.622H20.3418C20.8794 44.622 21.3267 45.0678 21.2792 45.668C21.2289 46.1004 20.7311 46.5044 20.2407 46.5044H11.0736L9.58774 45.7687V37.4602L10.2081 36.883C10.2657 36.8326 10.309 36.7674 10.3451 36.6952L12.5377 32.6421C13.7675 30.3796 12.3533 27.6796 13.6989 27.6796C14.9683 27.6796 15.9998 28.7185 15.9998 29.9877C15.9782 30.7637 16.065 31.1843 15.8698 31.8342L15.293 33.7239C15.1413 34.1783 15.4926 34.6544 15.9781 34.6544H22.1664C22.6497 34.6544 23.1546 35.0654 23.1979 35.4982C23.2574 36.0485 22.8206 36.5368 22.2602 36.5368H20.1396C19.7358 36.5368 19.4184 36.8541 19.4184 37.258C19.4184 37.6546 19.7358 37.9793 20.1396 37.9793C20.2731 37.9793 22.8035 37.9793 22.7073 37.9793C23.2412 37.9793 23.6955 38.3469 23.7388 38.816C23.7987 39.3836 23.3552 39.8617 22.8012 39.8617C22.6849 39.8617 19.4982 39.8617 19.6349 39.8617C19.238 39.8617 18.9137 40.179 18.9137 40.5829C18.9137 40.9798 19.238 41.3042 19.6349 41.3042H21.7193C22.2711 41.3042 22.7035 41.7495 22.657 42.3427C22.6064 42.8118 22.1593 43.1795 21.6327 43.1795ZM7.00559 46.4829C6.5946 46.4829 6.26286 46.1511 6.26286 45.7398C6.26286 45.3362 6.5946 45.0045 7.00559 45.0045H7.02003C7.41676 45.0115 7.74129 45.3433 7.74129 45.7398C7.74129 46.155 7.39711 46.4829 7.00559 46.4829Z" fill="white"/>
    <path d="M30.3166 18.7435L29.9776 16.7383C29.9704 16.7023 29.9849 16.6664 30.0065 16.6375L31.4635 15.2239C32.3782 14.3244 31.8811 12.7501 30.5978 12.5622L28.5929 12.2737C28.5496 12.2667 28.5207 12.2378 28.499 12.2089L27.6047 10.3914C27.0305 9.22713 25.3798 9.22843 24.8063 10.3914L23.912 12.2089C23.8903 12.2378 23.8614 12.2667 23.8181 12.2737L21.813 12.5622C20.5275 12.7505 20.0342 14.3257 20.9475 15.2239L22.4045 16.6375C22.4261 16.6664 22.4406 16.7023 22.4333 16.7457L22.0944 18.7435C21.8844 19.9575 23.1424 20.9971 24.359 20.3879L26.1477 19.443C26.1838 19.4215 26.2272 19.4215 26.2633 19.443L28.0519 20.3879C29.2267 20.9917 30.5314 19.9873 30.3166 18.7435ZM23.5152 18.9887L23.8542 16.9837C23.9407 16.4787 23.7748 15.9666 23.4071 15.606L21.9572 14.1924C21.8849 14.1201 21.9335 13.9906 22.0222 13.9906L24.0273 13.6948C24.5394 13.6226 24.9794 13.3053 25.2029 12.8436L26.0974 11.026C26.1866 10.9367 26.2244 10.9368 26.3136 11.026L27.2081 12.8436C27.4388 13.3053 27.8716 13.6226 28.3837 13.6948L30.3888 13.9906C30.4772 13.9906 30.5259 14.1194 30.4538 14.1924L29.0039 15.606C28.6362 15.9666 28.4703 16.4787 28.5568 16.9837L28.8958 18.9887C28.9296 19.0564 28.8172 19.1559 28.7299 19.1112L26.934 18.1667C26.4795 17.9286 25.9315 17.9286 25.477 18.1667L23.6811 19.1112C23.5938 19.1559 23.4814 19.0564 23.5152 18.9887Z" fill="white"/>
    <path d="M10.4026 9.1566C10.6002 9.34924 10.6903 9.62676 10.6437 9.89863L10.3008 11.8976C10.1834 12.5826 10.9025 13.1052 11.5176 12.7815L13.3126 11.8381C13.557 11.7095 13.849 11.7095 14.0932 11.8381L15.8883 12.7815C16.5035 13.1052 17.2225 12.5826 17.105 11.8976L16.7622 9.89863C16.7155 9.62676 16.8057 9.34924 17.0034 9.1566L18.4556 7.74086C18.9534 7.25556 18.6787 6.41034 17.9909 6.31032L15.9839 6.01872C15.7108 5.97928 15.4746 5.80777 15.3524 5.56019L14.4549 3.74156C14.1473 3.11821 13.2586 3.11821 12.951 3.74156L12.0534 5.56019C11.9312 5.80777 11.6951 5.97928 11.422 6.01872L9.41512 6.31032C8.72732 6.41034 8.45262 7.25556 8.95025 7.74086L10.4026 9.1566Z" fill="white"/>
    <path d="M35.4076 9.1566C35.6054 9.34924 35.6955 9.62676 35.6489 9.89863L35.306 11.8976C35.1886 12.5826 35.9075 13.1052 36.5228 12.7815L38.3178 11.8381C38.5622 11.7095 38.854 11.7095 39.0982 11.8381L40.8933 12.7815C41.5085 13.1052 42.2277 12.5826 42.11 11.8976L41.7674 9.89863C41.7205 9.62676 41.8109 9.34924 42.0084 9.1566L43.4606 7.74086C43.9584 7.25556 43.6837 6.41034 42.9959 6.31032L40.9891 6.01872C40.7158 5.97928 40.4798 5.80777 40.3576 5.56019L39.4601 3.74156C39.1525 3.11821 38.2636 3.11821 37.9561 3.74156L37.0584 5.56019C36.9364 5.80777 36.7003 5.97928 36.4272 6.01872L34.4201 6.31032C33.7323 6.41034 33.4578 7.25556 33.9554 7.74086L35.4076 9.1566Z" fill="white"/>
    <path d="M13.3901 21.1799V23.2838C13.3901 23.6821 13.7131 24.005 14.1114 24.005C14.5097 24.005 14.8326 23.6821 14.8326 23.2838V21.1799C14.8326 20.7819 14.5097 20.4586 14.1114 20.4586C13.7131 20.4586 13.3901 20.7819 13.3901 21.1799Z" fill="white"/>
    <path d="M9.20143 24.3649C9.4333 24.6918 9.8845 24.7656 10.2072 24.5361C10.5319 24.3057 10.6087 23.8557 10.3784 23.531L9.16163 21.8148C8.93096 21.4905 8.48194 21.413 8.15582 21.6437C7.83112 21.874 7.75434 22.3244 7.98467 22.6491L9.20143 24.3649Z" fill="white"/>
    <path d="M18.0156 24.536C18.3391 24.7661 18.7902 24.6909 19.0211 24.3652L20.2382 22.6491C20.4689 22.3244 20.3921 21.8743 20.0674 21.6436C19.7416 21.413 19.2919 21.4897 19.0619 21.8144L17.8448 23.5306C17.6141 23.8556 17.6909 24.3057 18.0156 24.536Z" fill="white"/>
    <path d="M38.1762 20.4586C37.7779 20.4586 37.455 20.7819 37.455 21.1799V23.2838C37.455 23.6821 37.7779 24.005 38.1762 24.005C38.5745 24.005 38.8975 23.6821 38.8975 23.2838V21.1799C38.8975 20.7819 38.5745 20.4586 38.1762 20.4586Z" fill="white"/>
    <path d="M32.0495 22.6491L33.2662 24.3649C33.4981 24.6918 33.9493 24.7656 34.2721 24.5361C34.5968 24.3057 34.6735 23.8557 34.4432 23.531L33.2265 21.8148C32.9958 21.4905 32.5464 21.413 32.2206 21.6437C31.8959 21.874 31.8192 22.3244 32.0495 22.6491Z" fill="white"/>
    <path d="M43.1265 21.8148L41.9097 23.531C41.6794 23.8557 41.7562 24.3057 42.0809 24.5361C42.4037 24.7656 42.8548 24.6918 43.0867 24.3649L44.3034 22.6491C44.5338 22.3244 44.457 21.874 44.1323 21.6437C43.8069 21.413 43.3572 21.4905 43.1265 21.8148Z" fill="white"/>
</svg>
