<svg width="20" height="20" viewBox="0 0 20 20" fill="none" xmlns="http://www.w3.org/2000/svg">
<path d="M10 18.3333C6.088 18.3333 2.91669 15.162 2.91669 11.25C2.91669 7.33798 6.088 4.16667 10 4.16667C13.912 4.16667 17.0834 7.33798 17.0834 11.25C17.0834 11.6765 17.0457 12.0942 16.9734 12.5" stroke="#4D5461" stroke-width="1.5" stroke-linecap="round"/>
<path d="M12.5 2.01172C11.7053 1.78695 10.8667 1.66667 10 1.66667C9.13331 1.66667 8.29472 1.78695 7.5 2.01172" stroke="#4D5461" stroke-width="1.5" stroke-linecap="round"/>
<path d="M11.6667 16.6667L13.0028 17.7356C13.4207 18.0699 14.0277 18.016 14.3801 17.6132L16.6667 15" stroke="#4D5461" stroke-width="1.5" stroke-linecap="round" stroke-linejoin="round"/>
<path d="M11.25 11.6667C11.25 12.357 10.6904 12.9167 10 12.9167C9.30964 12.9167 8.75 12.357 8.75 11.6667C8.75 10.9763 9.30964 10.4167 10 10.4167C10.6904 10.4167 11.25 10.9763 11.25 11.6667Z" stroke="#4D5461" stroke-width="1.5"/>
<path d="M10 10V7.5" stroke="#4D5461" stroke-width="1.5" stroke-linecap="round" stroke-linejoin="round"/>
</svg>
