<svg width="20" height="18" viewBox="0 0 20 18" fill="none" xmlns="http://www.w3.org/2000/svg">
    <path d="M16 0H4C1.79086 0 0 1.79086 0 4C0 6.20914 1.79086 8 4 8L16 8C18.2091 8 20 6.20914 20 4C20 1.79086 18.2091 0 16 0Z" fill="#F01543"/>
    <path opacity="0.4" d="M16 16L16 4H4V16C4 17.1046 4.89543 18 6 18H14C15.1046 18 16 17.1046 16 16Z" fill="#F01543"/>
    <path fill-rule="evenodd" clip-rule="evenodd" d="M9.25 12.1895L8.53033 11.4698C8.23744 11.1769 7.76256 11.1769 7.46967 11.4698C7.17678 11.7627 7.17678 12.2376 7.46967 12.5305L8.76256 13.8234C9.44598 14.5068 10.554 14.5068 11.2374 13.8234L12.5303 12.5305C12.8232 12.2376 12.8232 11.7627 12.5303 11.4698C12.2374 11.1769 11.7626 11.1769 11.4697 11.4698L10.75 12.1895V8.00015C10.75 7.58594 10.4142 7.25015 10 7.25015C9.58579 7.25015 9.25 7.58594 9.25 8.00015V12.1895Z" fill="#F01543"/>
</svg>
